ISO-10303-21;
HEADER;
/* Generated by software containing ST-Developer
 * from STEP Tools, Inc. (www.steptools.com) 
 */

FILE_DESCRIPTION(
/* description */ (''),
/* implementation_level */ '2;1');

FILE_NAME(
/* name */ 'wb_box2026.stp',
/* time_stamp */ '2026-09-26T10:20:06+02:00',
/* author */ ('PCA'),
/* organization */ (''),
/* preprocessor_version */ 'ST-DEVELOPER v20.1',
/* originating_system */ 'Autodesk Inventor 2027',
/* authorisation */ '');

FILE_SCHEMA (('AUTOMOTIVE_DESIGN { 1 0 10303 214 3 1 1 }'));
ENDSEC;

DATA;
#10=MECHANICAL_DESIGN_GEOMETRIC_PRESENTATION_REPRESENTATION('',(#13),#1831);
#11=SHAPE_REPRESENTATION_RELATIONSHIP('SRR','None',#1838,#12);
#12=ADVANCED_BREP_SHAPE_REPRESENTATION('',(#14),#1830);
#13=STYLED_ITEM('',(#1847),#14);
#14=MANIFOLD_SOLID_BREP('Solide1',#1110);
#15=FACE_BOUND('',#135,.T.);
#16=FACE_BOUND('',#136,.T.);
#17=FACE_BOUND('',#137,.T.);
#18=FACE_BOUND('',#138,.T.);
#19=FACE_BOUND('',#185,.T.);
#20=PLANE('',#1136);
#21=PLANE('',#1140);
#22=PLANE('',#1144);
#23=PLANE('',#1145);
#24=PLANE('',#1146);
#25=PLANE('',#1147);
#26=PLANE('',#1148);
#27=PLANE('',#1149);
#28=PLANE('',#1158);
#29=PLANE('',#1159);
#30=PLANE('',#1163);
#31=PLANE('',#1166);
#32=PLANE('',#1169);
#33=PLANE('',#1172);
#34=PLANE('',#1175);
#35=PLANE('',#1178);
#36=PLANE('',#1185);
#37=PLANE('',#1186);
#38=PLANE('',#1187);
#39=PLANE('',#1188);
#40=PLANE('',#1189);
#41=PLANE('',#1190);
#42=PLANE('',#1191);
#43=PLANE('',#1192);
#44=PLANE('',#1193);
#45=PLANE('',#1194);
#46=PLANE('',#1195);
#47=PLANE('',#1196);
#48=PLANE('',#1197);
#49=PLANE('',#1198);
#50=PLANE('',#1199);
#51=PLANE('',#1200);
#52=PLANE('',#1201);
#53=PLANE('',#1202);
#54=PLANE('',#1203);
#55=PLANE('',#1204);
#56=PLANE('',#1205);
#57=PLANE('',#1206);
#58=PLANE('',#1207);
#59=PLANE('',#1208);
#60=PLANE('',#1209);
#61=PLANE('',#1210);
#62=PLANE('',#1211);
#63=PLANE('',#1212);
#64=PLANE('',#1213);
#65=PLANE('',#1214);
#66=FACE_OUTER_BOUND('',#124,.T.);
#67=FACE_OUTER_BOUND('',#125,.T.);
#68=FACE_OUTER_BOUND('',#126,.T.);
#69=FACE_OUTER_BOUND('',#127,.T.);
#70=FACE_OUTER_BOUND('',#128,.T.);
#71=FACE_OUTER_BOUND('',#129,.T.);
#72=FACE_OUTER_BOUND('',#130,.T.);
#73=FACE_OUTER_BOUND('',#131,.T.);
#74=FACE_OUTER_BOUND('',#132,.T.);
#75=FACE_OUTER_BOUND('',#133,.T.);
#76=FACE_OUTER_BOUND('',#134,.T.);
#77=FACE_OUTER_BOUND('',#139,.T.);
#78=FACE_OUTER_BOUND('',#140,.T.);
#79=FACE_OUTER_BOUND('',#141,.T.);
#80=FACE_OUTER_BOUND('',#142,.T.);
#81=FACE_OUTER_BOUND('',#143,.T.);
#82=FACE_OUTER_BOUND('',#144,.T.);
#83=FACE_OUTER_BOUND('',#145,.T.);
#84=FACE_OUTER_BOUND('',#146,.T.);
#85=FACE_OUTER_BOUND('',#147,.T.);
#86=FACE_OUTER_BOUND('',#148,.T.);
#87=FACE_OUTER_BOUND('',#149,.T.);
#88=FACE_OUTER_BOUND('',#150,.T.);
#89=FACE_OUTER_BOUND('',#151,.T.);
#90=FACE_OUTER_BOUND('',#152,.T.);
#91=FACE_OUTER_BOUND('',#153,.T.);
#92=FACE_OUTER_BOUND('',#154,.T.);
#93=FACE_OUTER_BOUND('',#155,.T.);
#94=FACE_OUTER_BOUND('',#156,.T.);
#95=FACE_OUTER_BOUND('',#157,.T.);
#96=FACE_OUTER_BOUND('',#158,.T.);
#97=FACE_OUTER_BOUND('',#159,.T.);
#98=FACE_OUTER_BOUND('',#160,.T.);
#99=FACE_OUTER_BOUND('',#161,.T.);
#100=FACE_OUTER_BOUND('',#162,.T.);
#101=FACE_OUTER_BOUND('',#163,.T.);
#102=FACE_OUTER_BOUND('',#164,.T.);
#103=FACE_OUTER_BOUND('',#165,.T.);
#104=FACE_OUTER_BOUND('',#166,.T.);
#105=FACE_OUTER_BOUND('',#167,.T.);
#106=FACE_OUTER_BOUND('',#168,.T.);
#107=FACE_OUTER_BOUND('',#169,.T.);
#108=FACE_OUTER_BOUND('',#170,.T.);
#109=FACE_OUTER_BOUND('',#171,.T.);
#110=FACE_OUTER_BOUND('',#172,.T.);
#111=FACE_OUTER_BOUND('',#173,.T.);
#112=FACE_OUTER_BOUND('',#174,.T.);
#113=FACE_OUTER_BOUND('',#175,.T.);
#114=FACE_OUTER_BOUND('',#176,.T.);
#115=FACE_OUTER_BOUND('',#177,.T.);
#116=FACE_OUTER_BOUND('',#178,.T.);
#117=FACE_OUTER_BOUND('',#179,.T.);
#118=FACE_OUTER_BOUND('',#180,.T.);
#119=FACE_OUTER_BOUND('',#181,.T.);
#120=FACE_OUTER_BOUND('',#182,.T.);
#121=FACE_OUTER_BOUND('',#183,.T.);
#122=FACE_OUTER_BOUND('',#184,.T.);
#123=FACE_OUTER_BOUND('',#186,.T.);
#124=EDGE_LOOP('',(#730,#731,#732,#733));
#125=EDGE_LOOP('',(#734,#735,#736,#737));
#126=EDGE_LOOP('',(#738,#739,#740,#741));
#127=EDGE_LOOP('',(#742,#743,#744,#745));
#128=EDGE_LOOP('',(#746,#747,#748,#749));
#129=EDGE_LOOP('',(#750,#751,#752,#753));
#130=EDGE_LOOP('',(#754,#755,#756,#757));
#131=EDGE_LOOP('',(#758,#759,#760,#761));
#132=EDGE_LOOP('',(#762,#763,#764,#765));
#133=EDGE_LOOP('',(#766,#767,#768,#769));
#134=EDGE_LOOP('',(#770,#771,#772,#773,#774,#775,#776,#777,#778,#779,#780,
#781,#782,#783,#784,#785));
#135=EDGE_LOOP('',(#786));
#136=EDGE_LOOP('',(#787));
#137=EDGE_LOOP('',(#788));
#138=EDGE_LOOP('',(#789));
#139=EDGE_LOOP('',(#790,#791,#792,#793));
#140=EDGE_LOOP('',(#794,#795,#796,#797,#798,#799,#800,#801,#802,#803,#804,
#805,#806,#807,#808,#809));
#141=EDGE_LOOP('',(#810,#811,#812,#813));
#142=EDGE_LOOP('',(#814));
#143=EDGE_LOOP('',(#815,#816,#817,#818));
#144=EDGE_LOOP('',(#819));
#145=EDGE_LOOP('',(#820,#821,#822,#823));
#146=EDGE_LOOP('',(#824));
#147=EDGE_LOOP('',(#825,#826,#827,#828));
#148=EDGE_LOOP('',(#829));
#149=EDGE_LOOP('',(#830,#831,#832,#833));
#150=EDGE_LOOP('',(#834));
#151=EDGE_LOOP('',(#835,#836,#837,#838));
#152=EDGE_LOOP('',(#839,#840,#841,#842));
#153=EDGE_LOOP('',(#843,#844,#845,#846,#847,#848));
#154=EDGE_LOOP('',(#849,#850,#851,#852));
#155=EDGE_LOOP('',(#853,#854,#855,#856,#857,#858));
#156=EDGE_LOOP('',(#859,#860,#861,#862));
#157=EDGE_LOOP('',(#863,#864,#865,#866));
#158=EDGE_LOOP('',(#867,#868,#869,#870));
#159=EDGE_LOOP('',(#871,#872,#873,#874));
#160=EDGE_LOOP('',(#875,#876,#877,#878,#879,#880));
#161=EDGE_LOOP('',(#881,#882,#883,#884,#885,#886));
#162=EDGE_LOOP('',(#887,#888,#889,#890));
#163=EDGE_LOOP('',(#891,#892,#893,#894));
#164=EDGE_LOOP('',(#895,#896,#897,#898));
#165=EDGE_LOOP('',(#899,#900,#901,#902));
#166=EDGE_LOOP('',(#903,#904,#905,#906));
#167=EDGE_LOOP('',(#907,#908,#909,#910));
#168=EDGE_LOOP('',(#911,#912,#913,#914));
#169=EDGE_LOOP('',(#915,#916,#917,#918));
#170=EDGE_LOOP('',(#919,#920,#921,#922));
#171=EDGE_LOOP('',(#923,#924,#925,#926));
#172=EDGE_LOOP('',(#927,#928,#929,#930,#931,#932,#933,#934,#935,#936,#937,
#938,#939,#940,#941,#942,#943,#944,#945,#946,#947,#948,#949,#950,#951,#952,
#953,#954));
#173=EDGE_LOOP('',(#955,#956,#957,#958));
#174=EDGE_LOOP('',(#959,#960,#961,#962));
#175=EDGE_LOOP('',(#963,#964,#965,#966));
#176=EDGE_LOOP('',(#967,#968,#969,#970));
#177=EDGE_LOOP('',(#971,#972,#973,#974));
#178=EDGE_LOOP('',(#975,#976,#977,#978));
#179=EDGE_LOOP('',(#979,#980,#981,#982));
#180=EDGE_LOOP('',(#983,#984,#985,#986));
#181=EDGE_LOOP('',(#987,#988,#989,#990,#991,#992,#993,#994,#995,#996,#997,
#998,#999,#1000,#1001,#1002));
#182=EDGE_LOOP('',(#1003,#1004,#1005,#1006,#1007,#1008,#1009,#1010,#1011,
#1012,#1013,#1014,#1015,#1016,#1017,#1018,#1019,#1020,#1021,#1022));
#183=EDGE_LOOP('',(#1023,#1024,#1025,#1026));
#184=EDGE_LOOP('',(#1027,#1028,#1029,#1030));
#185=EDGE_LOOP('',(#1031));
#186=EDGE_LOOP('',(#1032,#1033,#1034,#1035,#1036,#1037,#1038,#1039));
#187=LINE('',#1518,#318);
#188=LINE('',#1521,#319);
#189=LINE('',#1524,#320);
#190=LINE('',#1526,#321);
#191=LINE('',#1527,#322);
#192=LINE('',#1533,#323);
#193=LINE('',#1536,#324);
#194=LINE('',#1539,#325);
#195=LINE('',#1541,#326);
#196=LINE('',#1542,#327);
#197=LINE('',#1548,#328);
#198=LINE('',#1551,#329);
#199=LINE('',#1554,#330);
#200=LINE('',#1556,#331);
#201=LINE('',#1557,#332);
#202=LINE('',#1560,#333);
#203=LINE('',#1562,#334);
#204=LINE('',#1563,#335);
#205=LINE('',#1566,#336);
#206=LINE('',#1568,#337);
#207=LINE('',#1569,#338);
#208=LINE('',#1572,#339);
#209=LINE('',#1574,#340);
#210=LINE('',#1575,#341);
#211=LINE('',#1577,#342);
#212=LINE('',#1578,#343);
#213=LINE('',#1581,#344);
#214=LINE('',#1583,#345);
#215=LINE('',#1585,#346);
#216=LINE('',#1587,#347);
#217=LINE('',#1588,#348);
#218=LINE('',#1590,#349);
#219=LINE('',#1594,#350);
#220=LINE('',#1598,#351);
#221=LINE('',#1602,#352);
#222=LINE('',#1605,#353);
#223=LINE('',#1615,#354);
#224=LINE('',#1616,#355);
#225=LINE('',#1619,#356);
#226=LINE('',#1621,#357);
#227=LINE('',#1622,#358);
#228=LINE('',#1627,#359);
#229=LINE('',#1632,#360);
#230=LINE('',#1637,#361);
#231=LINE('',#1642,#362);
#232=LINE('',#1647,#363);
#233=LINE('',#1654,#364);
#234=LINE('',#1655,#365);
#235=LINE('',#1659,#366);
#236=LINE('',#1661,#367);
#237=LINE('',#1663,#368);
#238=LINE('',#1664,#369);
#239=LINE('',#1669,#370);
#240=LINE('',#1670,#371);
#241=LINE('',#1671,#372);
#242=LINE('',#1675,#373);
#243=LINE('',#1680,#374);
#244=LINE('',#1682,#375);
#245=LINE('',#1683,#376);
#246=LINE('',#1686,#377);
#247=LINE('',#1688,#378);
#248=LINE('',#1689,#379);
#249=LINE('',#1691,#380);
#250=LINE('',#1693,#381);
#251=LINE('',#1695,#382);
#252=LINE('',#1696,#383);
#253=LINE('',#1699,#384);
#254=LINE('',#1701,#385);
#255=LINE('',#1702,#386);
#256=LINE('',#1705,#387);
#257=LINE('',#1707,#388);
#258=LINE('',#1708,#389);
#259=LINE('',#1709,#390);
#260=LINE('',#1712,#391);
#261=LINE('',#1714,#392);
#262=LINE('',#1715,#393);
#263=LINE('',#1717,#394);
#264=LINE('',#1718,#395);
#265=LINE('',#1722,#396);
#266=LINE('',#1724,#397);
#267=LINE('',#1726,#398);
#268=LINE('',#1727,#399);
#269=LINE('',#1731,#400);
#270=LINE('',#1733,#401);
#271=LINE('',#1735,#402);
#272=LINE('',#1736,#403);
#273=LINE('',#1739,#404);
#274=LINE('',#1741,#405);
#275=LINE('',#1742,#406);
#276=LINE('',#1745,#407);
#277=LINE('',#1746,#408);
#278=LINE('',#1749,#409);
#279=LINE('',#1750,#410);
#280=LINE('',#1753,#411);
#281=LINE('',#1755,#412);
#282=LINE('',#1756,#413);
#283=LINE('',#1759,#414);
#284=LINE('',#1761,#415);
#285=LINE('',#1762,#416);
#286=LINE('',#1764,#417);
#287=LINE('',#1767,#418);
#288=LINE('',#1769,#419);
#289=LINE('',#1771,#420);
#290=LINE('',#1773,#421);
#291=LINE('',#1775,#422);
#292=LINE('',#1776,#423);
#293=LINE('',#1777,#424);
#294=LINE('',#1781,#425);
#295=LINE('',#1783,#426);
#296=LINE('',#1785,#427);
#297=LINE('',#1786,#428);
#298=LINE('',#1790,#429);
#299=LINE('',#1792,#430);
#300=LINE('',#1794,#431);
#301=LINE('',#1795,#432);
#302=LINE('',#1797,#433);
#303=LINE('',#1798,#434);
#304=LINE('',#1800,#435);
#305=LINE('',#1802,#436);
#306=LINE('',#1805,#437);
#307=LINE('',#1807,#438);
#308=LINE('',#1808,#439);
#309=LINE('',#1811,#440);
#310=LINE('',#1813,#441);
#311=LINE('',#1814,#442);
#312=LINE('',#1816,#443);
#313=LINE('',#1818,#444);
#314=LINE('',#1820,#445);
#315=LINE('',#1821,#446);
#316=LINE('',#1822,#447);
#317=LINE('',#1824,#448);
#318=VECTOR('',#1221,10.);
#319=VECTOR('',#1224,10.);
#320=VECTOR('',#1227,10.);
#321=VECTOR('',#1228,10.);
#322=VECTOR('',#1229,10.);
#323=VECTOR('',#1234,10.);
#324=VECTOR('',#1237,10.);
#325=VECTOR('',#1240,10.);
#326=VECTOR('',#1241,10.);
#327=VECTOR('',#1242,10.);
#328=VECTOR('',#1247,10.);
#329=VECTOR('',#1250,10.);
#330=VECTOR('',#1253,10.);
#331=VECTOR('',#1254,10.);
#332=VECTOR('',#1255,10.);
#333=VECTOR('',#1258,10.);
#334=VECTOR('',#1259,10.);
#335=VECTOR('',#1260,10.);
#336=VECTOR('',#1263,10.);
#337=VECTOR('',#1264,10.);
#338=VECTOR('',#1265,10.);
#339=VECTOR('',#1268,10.);
#340=VECTOR('',#1269,10.);
#341=VECTOR('',#1270,10.);
#342=VECTOR('',#1273,10.);
#343=VECTOR('',#1274,10.);
#344=VECTOR('',#1277,10.);
#345=VECTOR('',#1278,10.);
#346=VECTOR('',#1279,10.);
#347=VECTOR('',#1280,10.);
#348=VECTOR('',#1281,10.);
#349=VECTOR('',#1282,10.);
#350=VECTOR('',#1285,10.);
#351=VECTOR('',#1288,10.);
#352=VECTOR('',#1291,10.);
#353=VECTOR('',#1294,10.);
#354=VECTOR('',#1305,10.);
#355=VECTOR('',#1306,10.);
#356=VECTOR('',#1309,10.);
#357=VECTOR('',#1310,10.);
#358=VECTOR('',#1311,10.);
#359=VECTOR('',#1316,1.);
#360=VECTOR('',#1323,0.85);
#361=VECTOR('',#1330,0.85);
#362=VECTOR('',#1337,0.85);
#363=VECTOR('',#1344,0.85);
#364=VECTOR('',#1353,10.);
#365=VECTOR('',#1354,10.);
#366=VECTOR('',#1357,10.);
#367=VECTOR('',#1358,10.);
#368=VECTOR('',#1359,10.);
#369=VECTOR('',#1360,10.);
#370=VECTOR('',#1365,10.);
#371=VECTOR('',#1366,10.);
#372=VECTOR('',#1367,10.);
#373=VECTOR('',#1372,10.);
#374=VECTOR('',#1377,10.);
#375=VECTOR('',#1378,10.);
#376=VECTOR('',#1379,10.);
#377=VECTOR('',#1382,10.);
#378=VECTOR('',#1383,10.);
#379=VECTOR('',#1384,10.);
#380=VECTOR('',#1387,10.);
#381=VECTOR('',#1390,10.);
#382=VECTOR('',#1393,10.);
#383=VECTOR('',#1394,10.);
#384=VECTOR('',#1397,10.);
#385=VECTOR('',#1398,10.);
#386=VECTOR('',#1399,10.);
#387=VECTOR('',#1402,10.);
#388=VECTOR('',#1403,10.);
#389=VECTOR('',#1404,10.);
#390=VECTOR('',#1405,10.);
#391=VECTOR('',#1408,10.);
#392=VECTOR('',#1409,10.);
#393=VECTOR('',#1410,10.);
#394=VECTOR('',#1413,10.);
#395=VECTOR('',#1414,10.);
#396=VECTOR('',#1417,10.);
#397=VECTOR('',#1418,10.);
#398=VECTOR('',#1419,10.);
#399=VECTOR('',#1420,10.);
#400=VECTOR('',#1423,10.);
#401=VECTOR('',#1424,10.);
#402=VECTOR('',#1425,10.);
#403=VECTOR('',#1426,10.);
#404=VECTOR('',#1429,10.);
#405=VECTOR('',#1430,10.);
#406=VECTOR('',#1431,10.);
#407=VECTOR('',#1434,10.);
#408=VECTOR('',#1435,10.);
#409=VECTOR('',#1438,10.);
#410=VECTOR('',#1439,10.);
#411=VECTOR('',#1442,10.);
#412=VECTOR('',#1443,10.);
#413=VECTOR('',#1444,10.);
#414=VECTOR('',#1447,10.);
#415=VECTOR('',#1448,10.);
#416=VECTOR('',#1449,10.);
#417=VECTOR('',#1452,10.);
#418=VECTOR('',#1455,10.);
#419=VECTOR('',#1456,10.);
#420=VECTOR('',#1457,10.);
#421=VECTOR('',#1458,10.);
#422=VECTOR('',#1459,10.);
#423=VECTOR('',#1460,10.);
#424=VECTOR('',#1461,10.);
#425=VECTOR('',#1464,10.);
#426=VECTOR('',#1465,10.);
#427=VECTOR('',#1466,10.);
#428=VECTOR('',#1467,10.);
#429=VECTOR('',#1470,10.);
#430=VECTOR('',#1471,10.);
#431=VECTOR('',#1472,10.);
#432=VECTOR('',#1473,10.);
#433=VECTOR('',#1476,10.);
#434=VECTOR('',#1477,10.);
#435=VECTOR('',#1480,10.);
#436=VECTOR('',#1483,10.);
#437=VECTOR('',#1486,10.);
#438=VECTOR('',#1487,10.);
#439=VECTOR('',#1488,10.);
#440=VECTOR('',#1491,10.);
#441=VECTOR('',#1492,10.);
#442=VECTOR('',#1493,10.);
#443=VECTOR('',#1496,10.);
#444=VECTOR('',#1499,10.);
#445=VECTOR('',#1500,10.);
#446=VECTOR('',#1501,10.);
#447=VECTOR('',#1502,10.);
#448=VECTOR('',#1505,10.);
#449=CIRCLE('',#1134,1.);
#450=CIRCLE('',#1135,1.);
#451=CIRCLE('',#1138,1.);
#452=CIRCLE('',#1139,1.);
#453=CIRCLE('',#1142,1.);
#454=CIRCLE('',#1143,1.);
#455=CIRCLE('',#1150,2.5);
#456=CIRCLE('',#1151,2.5);
#457=CIRCLE('',#1152,2.5);
#458=CIRCLE('',#1153,2.5);
#459=CIRCLE('',#1154,0.85);
#460=CIRCLE('',#1155,0.85);
#461=CIRCLE('',#1156,0.85);
#462=CIRCLE('',#1157,0.85);
#463=CIRCLE('',#1161,1.);
#464=CIRCLE('',#1162,1.);
#465=CIRCLE('',#1165,0.85);
#466=CIRCLE('',#1168,0.85);
#467=CIRCLE('',#1171,0.85);
#468=CIRCLE('',#1174,0.85);
#469=CIRCLE('',#1177,2.5);
#470=CIRCLE('',#1180,2.5);
#471=CIRCLE('',#1182,2.5);
#472=CIRCLE('',#1184,2.5);
#473=VERTEX_POINT('',#1514);
#474=VERTEX_POINT('',#1515);
#475=VERTEX_POINT('',#1517);
#476=VERTEX_POINT('',#1519);
#477=VERTEX_POINT('',#1523);
#478=VERTEX_POINT('',#1525);
#479=VERTEX_POINT('',#1529);
#480=VERTEX_POINT('',#1530);
#481=VERTEX_POINT('',#1532);
#482=VERTEX_POINT('',#1534);
#483=VERTEX_POINT('',#1538);
#484=VERTEX_POINT('',#1540);
#485=VERTEX_POINT('',#1544);
#486=VERTEX_POINT('',#1545);
#487=VERTEX_POINT('',#1547);
#488=VERTEX_POINT('',#1549);
#489=VERTEX_POINT('',#1553);
#490=VERTEX_POINT('',#1555);
#491=VERTEX_POINT('',#1559);
#492=VERTEX_POINT('',#1561);
#493=VERTEX_POINT('',#1565);
#494=VERTEX_POINT('',#1567);
#495=VERTEX_POINT('',#1571);
#496=VERTEX_POINT('',#1573);
#497=VERTEX_POINT('',#1580);
#498=VERTEX_POINT('',#1582);
#499=VERTEX_POINT('',#1584);
#500=VERTEX_POINT('',#1586);
#501=VERTEX_POINT('',#1589);
#502=VERTEX_POINT('',#1591);
#503=VERTEX_POINT('',#1593);
#504=VERTEX_POINT('',#1595);
#505=VERTEX_POINT('',#1597);
#506=VERTEX_POINT('',#1599);
#507=VERTEX_POINT('',#1601);
#508=VERTEX_POINT('',#1603);
#509=VERTEX_POINT('',#1606);
#510=VERTEX_POINT('',#1608);
#511=VERTEX_POINT('',#1610);
#512=VERTEX_POINT('',#1612);
#513=VERTEX_POINT('',#1618);
#514=VERTEX_POINT('',#1620);
#515=VERTEX_POINT('',#1624);
#516=VERTEX_POINT('',#1626);
#517=VERTEX_POINT('',#1631);
#518=VERTEX_POINT('',#1636);
#519=VERTEX_POINT('',#1641);
#520=VERTEX_POINT('',#1646);
#521=VERTEX_POINT('',#1651);
#522=VERTEX_POINT('',#1652);
#523=VERTEX_POINT('',#1657);
#524=VERTEX_POINT('',#1658);
#525=VERTEX_POINT('',#1660);
#526=VERTEX_POINT('',#1662);
#527=VERTEX_POINT('',#1666);
#528=VERTEX_POINT('',#1667);
#529=VERTEX_POINT('',#1673);
#530=VERTEX_POINT('',#1677);
#531=VERTEX_POINT('',#1679);
#532=VERTEX_POINT('',#1681);
#533=VERTEX_POINT('',#1685);
#534=VERTEX_POINT('',#1687);
#535=VERTEX_POINT('',#1698);
#536=VERTEX_POINT('',#1700);
#537=VERTEX_POINT('',#1704);
#538=VERTEX_POINT('',#1706);
#539=VERTEX_POINT('',#1711);
#540=VERTEX_POINT('',#1713);
#541=VERTEX_POINT('',#1720);
#542=VERTEX_POINT('',#1721);
#543=VERTEX_POINT('',#1723);
#544=VERTEX_POINT('',#1725);
#545=VERTEX_POINT('',#1729);
#546=VERTEX_POINT('',#1730);
#547=VERTEX_POINT('',#1732);
#548=VERTEX_POINT('',#1734);
#549=VERTEX_POINT('',#1738);
#550=VERTEX_POINT('',#1740);
#551=VERTEX_POINT('',#1744);
#552=VERTEX_POINT('',#1748);
#553=VERTEX_POINT('',#1752);
#554=VERTEX_POINT('',#1754);
#555=VERTEX_POINT('',#1758);
#556=VERTEX_POINT('',#1760);
#557=VERTEX_POINT('',#1766);
#558=VERTEX_POINT('',#1768);
#559=VERTEX_POINT('',#1770);
#560=VERTEX_POINT('',#1772);
#561=VERTEX_POINT('',#1774);
#562=VERTEX_POINT('',#1779);
#563=VERTEX_POINT('',#1780);
#564=VERTEX_POINT('',#1782);
#565=VERTEX_POINT('',#1784);
#566=VERTEX_POINT('',#1788);
#567=VERTEX_POINT('',#1789);
#568=VERTEX_POINT('',#1791);
#569=VERTEX_POINT('',#1793);
#570=VERTEX_POINT('',#1804);
#571=VERTEX_POINT('',#1806);
#572=VERTEX_POINT('',#1810);
#573=VERTEX_POINT('',#1812);
#574=VERTEX_POINT('',#1819);
#575=EDGE_CURVE('',#473,#474,#449,.T.);
#576=EDGE_CURVE('',#474,#475,#187,.T.);
#577=EDGE_CURVE('',#475,#476,#450,.T.);
#578=EDGE_CURVE('',#476,#473,#188,.T.);
#579=EDGE_CURVE('',#477,#474,#189,.T.);
#580=EDGE_CURVE('',#478,#477,#190,.T.);
#581=EDGE_CURVE('',#475,#478,#191,.T.);
#582=EDGE_CURVE('',#479,#480,#451,.T.);
#583=EDGE_CURVE('',#480,#481,#192,.T.);
#584=EDGE_CURVE('',#481,#482,#452,.T.);
#585=EDGE_CURVE('',#482,#479,#193,.T.);
#586=EDGE_CURVE('',#483,#480,#194,.T.);
#587=EDGE_CURVE('',#484,#483,#195,.T.);
#588=EDGE_CURVE('',#481,#484,#196,.T.);
#589=EDGE_CURVE('',#485,#486,#453,.T.);
#590=EDGE_CURVE('',#486,#487,#197,.T.);
#591=EDGE_CURVE('',#487,#488,#454,.T.);
#592=EDGE_CURVE('',#488,#485,#198,.T.);
#593=EDGE_CURVE('',#489,#486,#199,.T.);
#594=EDGE_CURVE('',#490,#489,#200,.T.);
#595=EDGE_CURVE('',#487,#490,#201,.T.);
#596=EDGE_CURVE('',#491,#476,#202,.T.);
#597=EDGE_CURVE('',#492,#491,#203,.T.);
#598=EDGE_CURVE('',#473,#492,#204,.T.);
#599=EDGE_CURVE('',#493,#482,#205,.T.);
#600=EDGE_CURVE('',#494,#493,#206,.T.);
#601=EDGE_CURVE('',#479,#494,#207,.T.);
#602=EDGE_CURVE('',#495,#488,#208,.T.);
#603=EDGE_CURVE('',#496,#495,#209,.T.);
#604=EDGE_CURVE('',#485,#496,#210,.T.);
#605=EDGE_CURVE('',#496,#483,#211,.T.);
#606=EDGE_CURVE('',#495,#484,#212,.T.);
#607=EDGE_CURVE('',#491,#497,#213,.T.);
#608=EDGE_CURVE('',#497,#498,#214,.T.);
#609=EDGE_CURVE('',#498,#499,#215,.T.);
#610=EDGE_CURVE('',#499,#500,#216,.T.);
#611=EDGE_CURVE('',#500,#490,#217,.T.);
#612=EDGE_CURVE('',#501,#489,#218,.T.);
#613=EDGE_CURVE('',#501,#502,#455,.T.);
#614=EDGE_CURVE('',#503,#502,#219,.T.);
#615=EDGE_CURVE('',#503,#504,#456,.T.);
#616=EDGE_CURVE('',#505,#504,#220,.T.);
#617=EDGE_CURVE('',#505,#506,#457,.T.);
#618=EDGE_CURVE('',#507,#506,#221,.T.);
#619=EDGE_CURVE('',#507,#508,#458,.T.);
#620=EDGE_CURVE('',#492,#508,#222,.T.);
#621=EDGE_CURVE('',#509,#509,#459,.T.);
#622=EDGE_CURVE('',#510,#510,#460,.T.);
#623=EDGE_CURVE('',#511,#511,#461,.T.);
#624=EDGE_CURVE('',#512,#512,#462,.T.);
#625=EDGE_CURVE('',#494,#477,#223,.T.);
#626=EDGE_CURVE('',#493,#478,#224,.T.);
#627=EDGE_CURVE('',#508,#513,#225,.T.);
#628=EDGE_CURVE('',#514,#513,#226,.T.);
#629=EDGE_CURVE('',#514,#501,#227,.T.);
#630=EDGE_CURVE('',#515,#515,#463,.T.);
#631=EDGE_CURVE('',#515,#516,#228,.T.);
#632=EDGE_CURVE('',#516,#516,#464,.T.);
#633=EDGE_CURVE('',#509,#517,#229,.T.);
#634=EDGE_CURVE('',#517,#517,#465,.T.);
#635=EDGE_CURVE('',#510,#518,#230,.T.);
#636=EDGE_CURVE('',#518,#518,#466,.T.);
#637=EDGE_CURVE('',#511,#519,#231,.T.);
#638=EDGE_CURVE('',#519,#519,#467,.T.);
#639=EDGE_CURVE('',#512,#520,#232,.T.);
#640=EDGE_CURVE('',#520,#520,#468,.T.);
#641=EDGE_CURVE('',#521,#522,#469,.T.);
#642=EDGE_CURVE('',#504,#521,#233,.T.);
#643=EDGE_CURVE('',#522,#503,#234,.T.);
#644=EDGE_CURVE('',#523,#524,#235,.T.);
#645=EDGE_CURVE('',#525,#524,#236,.T.);
#646=EDGE_CURVE('',#525,#526,#237,.T.);
#647=EDGE_CURVE('',#526,#523,#238,.T.);
#648=EDGE_CURVE('',#527,#528,#470,.T.);
#649=EDGE_CURVE('',#525,#527,#239,.T.);
#650=EDGE_CURVE('',#506,#524,#240,.T.);
#651=EDGE_CURVE('',#528,#505,#241,.T.);
#652=EDGE_CURVE('',#529,#514,#471,.T.);
#653=EDGE_CURVE('',#502,#529,#242,.T.);
#654=EDGE_CURVE('',#513,#530,#472,.T.);
#655=EDGE_CURVE('',#531,#507,#243,.T.);
#656=EDGE_CURVE('',#532,#531,#244,.T.);
#657=EDGE_CURVE('',#530,#532,#245,.T.);
#658=EDGE_CURVE('',#533,#532,#246,.T.);
#659=EDGE_CURVE('',#531,#534,#247,.T.);
#660=EDGE_CURVE('',#534,#533,#248,.T.);
#661=EDGE_CURVE('',#528,#521,#249,.T.);
#662=EDGE_CURVE('',#522,#529,#250,.T.);
#663=EDGE_CURVE('',#530,#527,#251,.T.);
#664=EDGE_CURVE('',#532,#525,#252,.T.);
#665=EDGE_CURVE('',#533,#535,#253,.T.);
#666=EDGE_CURVE('',#536,#535,#254,.T.);
#667=EDGE_CURVE('',#526,#536,#255,.T.);
#668=EDGE_CURVE('',#523,#537,#256,.T.);
#669=EDGE_CURVE('',#538,#537,#257,.T.);
#670=EDGE_CURVE('',#534,#538,#258,.T.);
#671=EDGE_CURVE('',#524,#531,#259,.T.);
#672=EDGE_CURVE('',#535,#539,#260,.T.);
#673=EDGE_CURVE('',#539,#540,#261,.T.);
#674=EDGE_CURVE('',#536,#540,#262,.T.);
#675=EDGE_CURVE('',#498,#537,#263,.T.);
#676=EDGE_CURVE('',#497,#538,#264,.T.);
#677=EDGE_CURVE('',#541,#542,#265,.T.);
#678=EDGE_CURVE('',#543,#541,#266,.T.);
#679=EDGE_CURVE('',#544,#543,#267,.T.);
#680=EDGE_CURVE('',#542,#544,#268,.T.);
#681=EDGE_CURVE('',#545,#546,#269,.T.);
#682=EDGE_CURVE('',#545,#547,#270,.T.);
#683=EDGE_CURVE('',#548,#547,#271,.T.);
#684=EDGE_CURVE('',#546,#548,#272,.T.);
#685=EDGE_CURVE('',#549,#546,#273,.T.);
#686=EDGE_CURVE('',#550,#549,#274,.T.);
#687=EDGE_CURVE('',#545,#550,#275,.T.);
#688=EDGE_CURVE('',#548,#551,#276,.T.);
#689=EDGE_CURVE('',#549,#551,#277,.T.);
#690=EDGE_CURVE('',#552,#547,#278,.T.);
#691=EDGE_CURVE('',#551,#552,#279,.T.);
#692=EDGE_CURVE('',#553,#542,#280,.T.);
#693=EDGE_CURVE('',#554,#553,#281,.T.);
#694=EDGE_CURVE('',#541,#554,#282,.T.);
#695=EDGE_CURVE('',#555,#543,#283,.T.);
#696=EDGE_CURVE('',#556,#555,#284,.T.);
#697=EDGE_CURVE('',#544,#556,#285,.T.);
#698=EDGE_CURVE('',#555,#554,#286,.T.);
#699=EDGE_CURVE('',#500,#557,#287,.T.);
#700=EDGE_CURVE('',#557,#558,#288,.T.);
#701=EDGE_CURVE('',#558,#559,#289,.T.);
#702=EDGE_CURVE('',#559,#560,#290,.T.);
#703=EDGE_CURVE('',#560,#561,#291,.T.);
#704=EDGE_CURVE('',#561,#550,#292,.T.);
#705=EDGE_CURVE('',#552,#539,#293,.T.);
#706=EDGE_CURVE('',#562,#563,#294,.T.);
#707=EDGE_CURVE('',#564,#562,#295,.T.);
#708=EDGE_CURVE('',#565,#564,#296,.T.);
#709=EDGE_CURVE('',#563,#565,#297,.T.);
#710=EDGE_CURVE('',#566,#567,#298,.T.);
#711=EDGE_CURVE('',#566,#568,#299,.T.);
#712=EDGE_CURVE('',#569,#568,#300,.T.);
#713=EDGE_CURVE('',#567,#569,#301,.T.);
#714=EDGE_CURVE('',#559,#564,#302,.T.);
#715=EDGE_CURVE('',#565,#558,#303,.T.);
#716=EDGE_CURVE('',#562,#560,#304,.T.);
#717=EDGE_CURVE('',#561,#563,#305,.T.);
#718=EDGE_CURVE('',#570,#568,#306,.T.);
#719=EDGE_CURVE('',#571,#570,#307,.T.);
#720=EDGE_CURVE('',#569,#571,#308,.T.);
#721=EDGE_CURVE('',#572,#567,#309,.T.);
#722=EDGE_CURVE('',#573,#572,#310,.T.);
#723=EDGE_CURVE('',#566,#573,#311,.T.);
#724=EDGE_CURVE('',#572,#571,#312,.T.);
#725=EDGE_CURVE('',#553,#573,#313,.T.);
#726=EDGE_CURVE('',#570,#574,#314,.T.);
#727=EDGE_CURVE('',#499,#574,#315,.T.);
#728=EDGE_CURVE('',#540,#556,#316,.T.);
#729=EDGE_CURVE('',#574,#557,#317,.T.);
#730=ORIENTED_EDGE('',*,*,#575,.T.);
#731=ORIENTED_EDGE('',*,*,#576,.T.);
#732=ORIENTED_EDGE('',*,*,#577,.T.);
#733=ORIENTED_EDGE('',*,*,#578,.T.);
#734=ORIENTED_EDGE('',*,*,#576,.F.);
#735=ORIENTED_EDGE('',*,*,#579,.F.);
#736=ORIENTED_EDGE('',*,*,#580,.F.);
#737=ORIENTED_EDGE('',*,*,#581,.F.);
#738=ORIENTED_EDGE('',*,*,#582,.T.);
#739=ORIENTED_EDGE('',*,*,#583,.T.);
#740=ORIENTED_EDGE('',*,*,#584,.T.);
#741=ORIENTED_EDGE('',*,*,#585,.T.);
#742=ORIENTED_EDGE('',*,*,#583,.F.);
#743=ORIENTED_EDGE('',*,*,#586,.F.);
#744=ORIENTED_EDGE('',*,*,#587,.F.);
#745=ORIENTED_EDGE('',*,*,#588,.F.);
#746=ORIENTED_EDGE('',*,*,#589,.T.);
#747=ORIENTED_EDGE('',*,*,#590,.T.);
#748=ORIENTED_EDGE('',*,*,#591,.T.);
#749=ORIENTED_EDGE('',*,*,#592,.T.);
#750=ORIENTED_EDGE('',*,*,#590,.F.);
#751=ORIENTED_EDGE('',*,*,#593,.F.);
#752=ORIENTED_EDGE('',*,*,#594,.F.);
#753=ORIENTED_EDGE('',*,*,#595,.F.);
#754=ORIENTED_EDGE('',*,*,#578,.F.);
#755=ORIENTED_EDGE('',*,*,#596,.F.);
#756=ORIENTED_EDGE('',*,*,#597,.F.);
#757=ORIENTED_EDGE('',*,*,#598,.F.);
#758=ORIENTED_EDGE('',*,*,#585,.F.);
#759=ORIENTED_EDGE('',*,*,#599,.F.);
#760=ORIENTED_EDGE('',*,*,#600,.F.);
#761=ORIENTED_EDGE('',*,*,#601,.F.);
#762=ORIENTED_EDGE('',*,*,#592,.F.);
#763=ORIENTED_EDGE('',*,*,#602,.F.);
#764=ORIENTED_EDGE('',*,*,#603,.F.);
#765=ORIENTED_EDGE('',*,*,#604,.F.);
#766=ORIENTED_EDGE('',*,*,#587,.T.);
#767=ORIENTED_EDGE('',*,*,#605,.F.);
#768=ORIENTED_EDGE('',*,*,#603,.T.);
#769=ORIENTED_EDGE('',*,*,#606,.T.);
#770=ORIENTED_EDGE('',*,*,#597,.T.);
#771=ORIENTED_EDGE('',*,*,#607,.T.);
#772=ORIENTED_EDGE('',*,*,#608,.T.);
#773=ORIENTED_EDGE('',*,*,#609,.T.);
#774=ORIENTED_EDGE('',*,*,#610,.T.);
#775=ORIENTED_EDGE('',*,*,#611,.T.);
#776=ORIENTED_EDGE('',*,*,#594,.T.);
#777=ORIENTED_EDGE('',*,*,#612,.F.);
#778=ORIENTED_EDGE('',*,*,#613,.T.);
#779=ORIENTED_EDGE('',*,*,#614,.F.);
#780=ORIENTED_EDGE('',*,*,#615,.T.);
#781=ORIENTED_EDGE('',*,*,#616,.F.);
#782=ORIENTED_EDGE('',*,*,#617,.T.);
#783=ORIENTED_EDGE('',*,*,#618,.F.);
#784=ORIENTED_EDGE('',*,*,#619,.T.);
#785=ORIENTED_EDGE('',*,*,#620,.F.);
#786=ORIENTED_EDGE('',*,*,#621,.T.);
#787=ORIENTED_EDGE('',*,*,#622,.T.);
#788=ORIENTED_EDGE('',*,*,#623,.T.);
#789=ORIENTED_EDGE('',*,*,#624,.T.);
#790=ORIENTED_EDGE('',*,*,#580,.T.);
#791=ORIENTED_EDGE('',*,*,#625,.F.);
#792=ORIENTED_EDGE('',*,*,#600,.T.);
#793=ORIENTED_EDGE('',*,*,#626,.T.);
#794=ORIENTED_EDGE('',*,*,#579,.T.);
#795=ORIENTED_EDGE('',*,*,#575,.F.);
#796=ORIENTED_EDGE('',*,*,#598,.T.);
#797=ORIENTED_EDGE('',*,*,#620,.T.);
#798=ORIENTED_EDGE('',*,*,#627,.T.);
#799=ORIENTED_EDGE('',*,*,#628,.F.);
#800=ORIENTED_EDGE('',*,*,#629,.T.);
#801=ORIENTED_EDGE('',*,*,#612,.T.);
#802=ORIENTED_EDGE('',*,*,#593,.T.);
#803=ORIENTED_EDGE('',*,*,#589,.F.);
#804=ORIENTED_EDGE('',*,*,#604,.T.);
#805=ORIENTED_EDGE('',*,*,#605,.T.);
#806=ORIENTED_EDGE('',*,*,#586,.T.);
#807=ORIENTED_EDGE('',*,*,#582,.F.);
#808=ORIENTED_EDGE('',*,*,#601,.T.);
#809=ORIENTED_EDGE('',*,*,#625,.T.);
#810=ORIENTED_EDGE('',*,*,#630,.F.);
#811=ORIENTED_EDGE('',*,*,#631,.T.);
#812=ORIENTED_EDGE('',*,*,#632,.T.);
#813=ORIENTED_EDGE('',*,*,#631,.F.);
#814=ORIENTED_EDGE('',*,*,#632,.F.);
#815=ORIENTED_EDGE('',*,*,#621,.F.);
#816=ORIENTED_EDGE('',*,*,#633,.T.);
#817=ORIENTED_EDGE('',*,*,#634,.T.);
#818=ORIENTED_EDGE('',*,*,#633,.F.);
#819=ORIENTED_EDGE('',*,*,#634,.F.);
#820=ORIENTED_EDGE('',*,*,#622,.F.);
#821=ORIENTED_EDGE('',*,*,#635,.T.);
#822=ORIENTED_EDGE('',*,*,#636,.T.);
#823=ORIENTED_EDGE('',*,*,#635,.F.);
#824=ORIENTED_EDGE('',*,*,#636,.F.);
#825=ORIENTED_EDGE('',*,*,#623,.F.);
#826=ORIENTED_EDGE('',*,*,#637,.T.);
#827=ORIENTED_EDGE('',*,*,#638,.T.);
#828=ORIENTED_EDGE('',*,*,#637,.F.);
#829=ORIENTED_EDGE('',*,*,#638,.F.);
#830=ORIENTED_EDGE('',*,*,#624,.F.);
#831=ORIENTED_EDGE('',*,*,#639,.T.);
#832=ORIENTED_EDGE('',*,*,#640,.T.);
#833=ORIENTED_EDGE('',*,*,#639,.F.);
#834=ORIENTED_EDGE('',*,*,#640,.F.);
#835=ORIENTED_EDGE('',*,*,#641,.F.);
#836=ORIENTED_EDGE('',*,*,#642,.F.);
#837=ORIENTED_EDGE('',*,*,#615,.F.);
#838=ORIENTED_EDGE('',*,*,#643,.F.);
#839=ORIENTED_EDGE('',*,*,#644,.T.);
#840=ORIENTED_EDGE('',*,*,#645,.F.);
#841=ORIENTED_EDGE('',*,*,#646,.T.);
#842=ORIENTED_EDGE('',*,*,#647,.T.);
#843=ORIENTED_EDGE('',*,*,#648,.F.);
#844=ORIENTED_EDGE('',*,*,#649,.F.);
#845=ORIENTED_EDGE('',*,*,#645,.T.);
#846=ORIENTED_EDGE('',*,*,#650,.F.);
#847=ORIENTED_EDGE('',*,*,#617,.F.);
#848=ORIENTED_EDGE('',*,*,#651,.F.);
#849=ORIENTED_EDGE('',*,*,#652,.F.);
#850=ORIENTED_EDGE('',*,*,#653,.F.);
#851=ORIENTED_EDGE('',*,*,#613,.F.);
#852=ORIENTED_EDGE('',*,*,#629,.F.);
#853=ORIENTED_EDGE('',*,*,#654,.F.);
#854=ORIENTED_EDGE('',*,*,#627,.F.);
#855=ORIENTED_EDGE('',*,*,#619,.F.);
#856=ORIENTED_EDGE('',*,*,#655,.F.);
#857=ORIENTED_EDGE('',*,*,#656,.F.);
#858=ORIENTED_EDGE('',*,*,#657,.F.);
#859=ORIENTED_EDGE('',*,*,#658,.T.);
#860=ORIENTED_EDGE('',*,*,#656,.T.);
#861=ORIENTED_EDGE('',*,*,#659,.T.);
#862=ORIENTED_EDGE('',*,*,#660,.T.);
#863=ORIENTED_EDGE('',*,*,#642,.T.);
#864=ORIENTED_EDGE('',*,*,#661,.F.);
#865=ORIENTED_EDGE('',*,*,#651,.T.);
#866=ORIENTED_EDGE('',*,*,#616,.T.);
#867=ORIENTED_EDGE('',*,*,#643,.T.);
#868=ORIENTED_EDGE('',*,*,#614,.T.);
#869=ORIENTED_EDGE('',*,*,#653,.T.);
#870=ORIENTED_EDGE('',*,*,#662,.F.);
#871=ORIENTED_EDGE('',*,*,#649,.T.);
#872=ORIENTED_EDGE('',*,*,#663,.F.);
#873=ORIENTED_EDGE('',*,*,#657,.T.);
#874=ORIENTED_EDGE('',*,*,#664,.T.);
#875=ORIENTED_EDGE('',*,*,#658,.F.);
#876=ORIENTED_EDGE('',*,*,#665,.T.);
#877=ORIENTED_EDGE('',*,*,#666,.F.);
#878=ORIENTED_EDGE('',*,*,#667,.F.);
#879=ORIENTED_EDGE('',*,*,#646,.F.);
#880=ORIENTED_EDGE('',*,*,#664,.F.);
#881=ORIENTED_EDGE('',*,*,#644,.F.);
#882=ORIENTED_EDGE('',*,*,#668,.T.);
#883=ORIENTED_EDGE('',*,*,#669,.F.);
#884=ORIENTED_EDGE('',*,*,#670,.F.);
#885=ORIENTED_EDGE('',*,*,#659,.F.);
#886=ORIENTED_EDGE('',*,*,#671,.F.);
#887=ORIENTED_EDGE('',*,*,#666,.T.);
#888=ORIENTED_EDGE('',*,*,#672,.T.);
#889=ORIENTED_EDGE('',*,*,#673,.T.);
#890=ORIENTED_EDGE('',*,*,#674,.F.);
#891=ORIENTED_EDGE('',*,*,#669,.T.);
#892=ORIENTED_EDGE('',*,*,#675,.F.);
#893=ORIENTED_EDGE('',*,*,#608,.F.);
#894=ORIENTED_EDGE('',*,*,#676,.T.);
#895=ORIENTED_EDGE('',*,*,#677,.F.);
#896=ORIENTED_EDGE('',*,*,#678,.F.);
#897=ORIENTED_EDGE('',*,*,#679,.F.);
#898=ORIENTED_EDGE('',*,*,#680,.F.);
#899=ORIENTED_EDGE('',*,*,#681,.F.);
#900=ORIENTED_EDGE('',*,*,#682,.T.);
#901=ORIENTED_EDGE('',*,*,#683,.F.);
#902=ORIENTED_EDGE('',*,*,#684,.F.);
#903=ORIENTED_EDGE('',*,*,#681,.T.);
#904=ORIENTED_EDGE('',*,*,#685,.F.);
#905=ORIENTED_EDGE('',*,*,#686,.F.);
#906=ORIENTED_EDGE('',*,*,#687,.F.);
#907=ORIENTED_EDGE('',*,*,#684,.T.);
#908=ORIENTED_EDGE('',*,*,#688,.T.);
#909=ORIENTED_EDGE('',*,*,#689,.F.);
#910=ORIENTED_EDGE('',*,*,#685,.T.);
#911=ORIENTED_EDGE('',*,*,#683,.T.);
#912=ORIENTED_EDGE('',*,*,#690,.F.);
#913=ORIENTED_EDGE('',*,*,#691,.F.);
#914=ORIENTED_EDGE('',*,*,#688,.F.);
#915=ORIENTED_EDGE('',*,*,#677,.T.);
#916=ORIENTED_EDGE('',*,*,#692,.F.);
#917=ORIENTED_EDGE('',*,*,#693,.F.);
#918=ORIENTED_EDGE('',*,*,#694,.F.);
#919=ORIENTED_EDGE('',*,*,#679,.T.);
#920=ORIENTED_EDGE('',*,*,#695,.F.);
#921=ORIENTED_EDGE('',*,*,#696,.F.);
#922=ORIENTED_EDGE('',*,*,#697,.F.);
#923=ORIENTED_EDGE('',*,*,#678,.T.);
#924=ORIENTED_EDGE('',*,*,#694,.T.);
#925=ORIENTED_EDGE('',*,*,#698,.F.);
#926=ORIENTED_EDGE('',*,*,#695,.T.);
#927=ORIENTED_EDGE('',*,*,#581,.T.);
#928=ORIENTED_EDGE('',*,*,#626,.F.);
#929=ORIENTED_EDGE('',*,*,#599,.T.);
#930=ORIENTED_EDGE('',*,*,#584,.F.);
#931=ORIENTED_EDGE('',*,*,#588,.T.);
#932=ORIENTED_EDGE('',*,*,#606,.F.);
#933=ORIENTED_EDGE('',*,*,#602,.T.);
#934=ORIENTED_EDGE('',*,*,#591,.F.);
#935=ORIENTED_EDGE('',*,*,#595,.T.);
#936=ORIENTED_EDGE('',*,*,#611,.F.);
#937=ORIENTED_EDGE('',*,*,#699,.T.);
#938=ORIENTED_EDGE('',*,*,#700,.T.);
#939=ORIENTED_EDGE('',*,*,#701,.T.);
#940=ORIENTED_EDGE('',*,*,#702,.T.);
#941=ORIENTED_EDGE('',*,*,#703,.T.);
#942=ORIENTED_EDGE('',*,*,#704,.T.);
#943=ORIENTED_EDGE('',*,*,#686,.T.);
#944=ORIENTED_EDGE('',*,*,#689,.T.);
#945=ORIENTED_EDGE('',*,*,#691,.T.);
#946=ORIENTED_EDGE('',*,*,#705,.T.);
#947=ORIENTED_EDGE('',*,*,#672,.F.);
#948=ORIENTED_EDGE('',*,*,#665,.F.);
#949=ORIENTED_EDGE('',*,*,#660,.F.);
#950=ORIENTED_EDGE('',*,*,#670,.T.);
#951=ORIENTED_EDGE('',*,*,#676,.F.);
#952=ORIENTED_EDGE('',*,*,#607,.F.);
#953=ORIENTED_EDGE('',*,*,#596,.T.);
#954=ORIENTED_EDGE('',*,*,#577,.F.);
#955=ORIENTED_EDGE('',*,*,#706,.F.);
#956=ORIENTED_EDGE('',*,*,#707,.F.);
#957=ORIENTED_EDGE('',*,*,#708,.F.);
#958=ORIENTED_EDGE('',*,*,#709,.F.);
#959=ORIENTED_EDGE('',*,*,#710,.F.);
#960=ORIENTED_EDGE('',*,*,#711,.T.);
#961=ORIENTED_EDGE('',*,*,#712,.F.);
#962=ORIENTED_EDGE('',*,*,#713,.F.);
#963=ORIENTED_EDGE('',*,*,#708,.T.);
#964=ORIENTED_EDGE('',*,*,#714,.F.);
#965=ORIENTED_EDGE('',*,*,#701,.F.);
#966=ORIENTED_EDGE('',*,*,#715,.F.);
#967=ORIENTED_EDGE('',*,*,#707,.T.);
#968=ORIENTED_EDGE('',*,*,#716,.T.);
#969=ORIENTED_EDGE('',*,*,#702,.F.);
#970=ORIENTED_EDGE('',*,*,#714,.T.);
#971=ORIENTED_EDGE('',*,*,#706,.T.);
#972=ORIENTED_EDGE('',*,*,#717,.F.);
#973=ORIENTED_EDGE('',*,*,#703,.F.);
#974=ORIENTED_EDGE('',*,*,#716,.F.);
#975=ORIENTED_EDGE('',*,*,#712,.T.);
#976=ORIENTED_EDGE('',*,*,#718,.F.);
#977=ORIENTED_EDGE('',*,*,#719,.F.);
#978=ORIENTED_EDGE('',*,*,#720,.F.);
#979=ORIENTED_EDGE('',*,*,#710,.T.);
#980=ORIENTED_EDGE('',*,*,#721,.F.);
#981=ORIENTED_EDGE('',*,*,#722,.F.);
#982=ORIENTED_EDGE('',*,*,#723,.F.);
#983=ORIENTED_EDGE('',*,*,#713,.T.);
#984=ORIENTED_EDGE('',*,*,#720,.T.);
#985=ORIENTED_EDGE('',*,*,#724,.F.);
#986=ORIENTED_EDGE('',*,*,#721,.T.);
#987=ORIENTED_EDGE('',*,*,#693,.T.);
#988=ORIENTED_EDGE('',*,*,#725,.T.);
#989=ORIENTED_EDGE('',*,*,#722,.T.);
#990=ORIENTED_EDGE('',*,*,#724,.T.);
#991=ORIENTED_EDGE('',*,*,#719,.T.);
#992=ORIENTED_EDGE('',*,*,#726,.T.);
#993=ORIENTED_EDGE('',*,*,#727,.F.);
#994=ORIENTED_EDGE('',*,*,#609,.F.);
#995=ORIENTED_EDGE('',*,*,#675,.T.);
#996=ORIENTED_EDGE('',*,*,#668,.F.);
#997=ORIENTED_EDGE('',*,*,#647,.F.);
#998=ORIENTED_EDGE('',*,*,#667,.T.);
#999=ORIENTED_EDGE('',*,*,#674,.T.);
#1000=ORIENTED_EDGE('',*,*,#728,.T.);
#1001=ORIENTED_EDGE('',*,*,#696,.T.);
#1002=ORIENTED_EDGE('',*,*,#698,.T.);
#1003=ORIENTED_EDGE('',*,*,#692,.T.);
#1004=ORIENTED_EDGE('',*,*,#680,.T.);
#1005=ORIENTED_EDGE('',*,*,#697,.T.);
#1006=ORIENTED_EDGE('',*,*,#728,.F.);
#1007=ORIENTED_EDGE('',*,*,#673,.F.);
#1008=ORIENTED_EDGE('',*,*,#705,.F.);
#1009=ORIENTED_EDGE('',*,*,#690,.T.);
#1010=ORIENTED_EDGE('',*,*,#682,.F.);
#1011=ORIENTED_EDGE('',*,*,#687,.T.);
#1012=ORIENTED_EDGE('',*,*,#704,.F.);
#1013=ORIENTED_EDGE('',*,*,#717,.T.);
#1014=ORIENTED_EDGE('',*,*,#709,.T.);
#1015=ORIENTED_EDGE('',*,*,#715,.T.);
#1016=ORIENTED_EDGE('',*,*,#700,.F.);
#1017=ORIENTED_EDGE('',*,*,#729,.F.);
#1018=ORIENTED_EDGE('',*,*,#726,.F.);
#1019=ORIENTED_EDGE('',*,*,#718,.T.);
#1020=ORIENTED_EDGE('',*,*,#711,.F.);
#1021=ORIENTED_EDGE('',*,*,#723,.T.);
#1022=ORIENTED_EDGE('',*,*,#725,.F.);
#1023=ORIENTED_EDGE('',*,*,#610,.F.);
#1024=ORIENTED_EDGE('',*,*,#727,.T.);
#1025=ORIENTED_EDGE('',*,*,#729,.T.);
#1026=ORIENTED_EDGE('',*,*,#699,.F.);
#1027=ORIENTED_EDGE('',*,*,#650,.T.);
#1028=ORIENTED_EDGE('',*,*,#671,.T.);
#1029=ORIENTED_EDGE('',*,*,#655,.T.);
#1030=ORIENTED_EDGE('',*,*,#618,.T.);
#1031=ORIENTED_EDGE('',*,*,#630,.T.);
#1032=ORIENTED_EDGE('',*,*,#628,.T.);
#1033=ORIENTED_EDGE('',*,*,#654,.T.);
#1034=ORIENTED_EDGE('',*,*,#663,.T.);
#1035=ORIENTED_EDGE('',*,*,#648,.T.);
#1036=ORIENTED_EDGE('',*,*,#661,.T.);
#1037=ORIENTED_EDGE('',*,*,#641,.T.);
#1038=ORIENTED_EDGE('',*,*,#662,.T.);
#1039=ORIENTED_EDGE('',*,*,#652,.T.);
#1040=CYLINDRICAL_SURFACE('',#1133,1.);
#1041=CYLINDRICAL_SURFACE('',#1137,1.);
#1042=CYLINDRICAL_SURFACE('',#1141,1.);
#1043=CYLINDRICAL_SURFACE('',#1160,1.);
#1044=CYLINDRICAL_SURFACE('',#1164,0.85);
#1045=CYLINDRICAL_SURFACE('',#1167,0.85);
#1046=CYLINDRICAL_SURFACE('',#1170,0.85);
#1047=CYLINDRICAL_SURFACE('',#1173,0.85);
#1048=CYLINDRICAL_SURFACE('',#1176,2.5);
#1049=CYLINDRICAL_SURFACE('',#1179,2.5);
#1050=CYLINDRICAL_SURFACE('',#1181,2.5);
#1051=CYLINDRICAL_SURFACE('',#1183,2.5);
#1052=ADVANCED_FACE('',(#66),#1040,.F.);
#1053=ADVANCED_FACE('',(#67),#20,.F.);
#1054=ADVANCED_FACE('',(#68),#1041,.F.);
#1055=ADVANCED_FACE('',(#69),#21,.F.);
#1056=ADVANCED_FACE('',(#70),#1042,.F.);
#1057=ADVANCED_FACE('',(#71),#22,.F.);
#1058=ADVANCED_FACE('',(#72),#23,.F.);
#1059=ADVANCED_FACE('',(#73),#24,.F.);
#1060=ADVANCED_FACE('',(#74),#25,.F.);
#1061=ADVANCED_FACE('',(#75),#26,.F.);
#1062=ADVANCED_FACE('',(#76,#15,#16,#17,#18),#27,.F.);
#1063=ADVANCED_FACE('',(#77),#28,.F.);
#1064=ADVANCED_FACE('',(#78),#29,.T.);
#1065=ADVANCED_FACE('',(#79),#1043,.F.);
#1066=ADVANCED_FACE('',(#80),#30,.T.);
#1067=ADVANCED_FACE('',(#81),#1044,.F.);
#1068=ADVANCED_FACE('',(#82),#31,.T.);
#1069=ADVANCED_FACE('',(#83),#1045,.F.);
#1070=ADVANCED_FACE('',(#84),#32,.T.);
#1071=ADVANCED_FACE('',(#85),#1046,.F.);
#1072=ADVANCED_FACE('',(#86),#33,.T.);
#1073=ADVANCED_FACE('',(#87),#1047,.F.);
#1074=ADVANCED_FACE('',(#88),#34,.T.);
#1075=ADVANCED_FACE('',(#89),#1048,.T.);
#1076=ADVANCED_FACE('',(#90),#35,.T.);
#1077=ADVANCED_FACE('',(#91),#1049,.T.);
#1078=ADVANCED_FACE('',(#92),#1050,.T.);
#1079=ADVANCED_FACE('',(#93),#1051,.T.);
#1080=ADVANCED_FACE('',(#94),#36,.T.);
#1081=ADVANCED_FACE('',(#95),#37,.T.);
#1082=ADVANCED_FACE('',(#96),#38,.T.);
#1083=ADVANCED_FACE('',(#97),#39,.T.);
#1084=ADVANCED_FACE('',(#98),#40,.F.);
#1085=ADVANCED_FACE('',(#99),#41,.F.);
#1086=ADVANCED_FACE('',(#100),#42,.F.);
#1087=ADVANCED_FACE('',(#101),#43,.F.);
#1088=ADVANCED_FACE('',(#102),#44,.F.);
#1089=ADVANCED_FACE('',(#103),#45,.F.);
#1090=ADVANCED_FACE('',(#104),#46,.T.);
#1091=ADVANCED_FACE('',(#105),#47,.T.);
#1092=ADVANCED_FACE('',(#106),#48,.T.);
#1093=ADVANCED_FACE('',(#107),#49,.T.);
#1094=ADVANCED_FACE('',(#108),#50,.T.);
#1095=ADVANCED_FACE('',(#109),#51,.T.);
#1096=ADVANCED_FACE('',(#110),#52,.F.);
#1097=ADVANCED_FACE('',(#111),#53,.F.);
#1098=ADVANCED_FACE('',(#112),#54,.F.);
#1099=ADVANCED_FACE('',(#113),#55,.T.);
#1100=ADVANCED_FACE('',(#114),#56,.T.);
#1101=ADVANCED_FACE('',(#115),#57,.T.);
#1102=ADVANCED_FACE('',(#116),#58,.T.);
#1103=ADVANCED_FACE('',(#117),#59,.T.);
#1104=ADVANCED_FACE('',(#118),#60,.T.);
#1105=ADVANCED_FACE('',(#119),#61,.F.);
#1106=ADVANCED_FACE('',(#120),#62,.F.);
#1107=ADVANCED_FACE('',(#121),#63,.F.);
#1108=ADVANCED_FACE('',(#122,#19),#64,.T.);
#1109=ADVANCED_FACE('',(#123),#65,.T.);
#1110=CLOSED_SHELL('',(#1052,#1053,#1054,#1055,#1056,#1057,#1058,#1059,
#1060,#1061,#1062,#1063,#1064,#1065,#1066,#1067,#1068,#1069,#1070,#1071,
#1072,#1073,#1074,#1075,#1076,#1077,#1078,#1079,#1080,#1081,#1082,#1083,
#1084,#1085,#1086,#1087,#1088,#1089,#1090,#1091,#1092,#1093,#1094,#1095,
#1096,#1097,#1098,#1099,#1100,#1101,#1102,#1103,#1104,#1105,#1106,#1107,
#1108,#1109));
#1111=DERIVED_UNIT_ELEMENT(#1114,1.);
#1112=DERIVED_UNIT_ELEMENT(#1833,-3.);
#1113=DIMENSIONAL_EXPONENTS(0.,1.,0.,0.,0.,0.,0.);
#1114=(
CONVERSION_BASED_UNIT('gram',#1116)
MASS_UNIT()
NAMED_UNIT(#1113)
);
#1115=(
MASS_UNIT()
NAMED_UNIT(*)
SI_UNIT(.KILO.,.GRAM.)
);
#1116=MASS_MEASURE_WITH_UNIT(MASS_MEASURE(0.001),#1115);
#1117=DERIVED_UNIT((#1111,#1112));
#1118=MEASURE_REPRESENTATION_ITEM('density measure',
POSITIVE_RATIO_MEASURE(1.),#1117);
#1119=PROPERTY_DEFINITION_REPRESENTATION(#1124,#1121);
#1120=PROPERTY_DEFINITION_REPRESENTATION(#1125,#1122);
#1121=REPRESENTATION('material name',(#1123),#1830);
#1122=REPRESENTATION('density',(#1118),#1830);
#1123=DESCRIPTIVE_REPRESENTATION_ITEM('G\X\E9n\X\E9rique','G\X\E9n\X\E9
rique');
#1124=PROPERTY_DEFINITION('material property','material name',#1840);
#1125=PROPERTY_DEFINITION('material property','density of part',#1840);
#1126=DATE_TIME_ROLE('creation_date');
#1127=APPLIED_DATE_AND_TIME_ASSIGNMENT(#1128,#1126,(#1840));
#1128=DATE_AND_TIME(#1129,#1130);
#1129=CALENDAR_DATE(2022,25,8);
#1130=LOCAL_TIME(0,0,0.,#1131);
#1131=COORDINATED_UNIVERSAL_TIME_OFFSET(0,0,.BEHIND.);
#1132=AXIS2_PLACEMENT_3D('',#1512,#1215,#1216);
#1133=AXIS2_PLACEMENT_3D('',#1513,#1217,#1218);
#1134=AXIS2_PLACEMENT_3D('',#1516,#1219,#1220);
#1135=AXIS2_PLACEMENT_3D('',#1520,#1222,#1223);
#1136=AXIS2_PLACEMENT_3D('',#1522,#1225,#1226);
#1137=AXIS2_PLACEMENT_3D('',#1528,#1230,#1231);
#1138=AXIS2_PLACEMENT_3D('',#1531,#1232,#1233);
#1139=AXIS2_PLACEMENT_3D('',#1535,#1235,#1236);
#1140=AXIS2_PLACEMENT_3D('',#1537,#1238,#1239);
#1141=AXIS2_PLACEMENT_3D('',#1543,#1243,#1244);
#1142=AXIS2_PLACEMENT_3D('',#1546,#1245,#1246);
#1143=AXIS2_PLACEMENT_3D('',#1550,#1248,#1249);
#1144=AXIS2_PLACEMENT_3D('',#1552,#1251,#1252);
#1145=AXIS2_PLACEMENT_3D('',#1558,#1256,#1257);
#1146=AXIS2_PLACEMENT_3D('',#1564,#1261,#1262);
#1147=AXIS2_PLACEMENT_3D('',#1570,#1266,#1267);
#1148=AXIS2_PLACEMENT_3D('',#1576,#1271,#1272);
#1149=AXIS2_PLACEMENT_3D('',#1579,#1275,#1276);
#1150=AXIS2_PLACEMENT_3D('',#1592,#1283,#1284);
#1151=AXIS2_PLACEMENT_3D('',#1596,#1286,#1287);
#1152=AXIS2_PLACEMENT_3D('',#1600,#1289,#1290);
#1153=AXIS2_PLACEMENT_3D('',#1604,#1292,#1293);
#1154=AXIS2_PLACEMENT_3D('',#1607,#1295,#1296);
#1155=AXIS2_PLACEMENT_3D('',#1609,#1297,#1298);
#1156=AXIS2_PLACEMENT_3D('',#1611,#1299,#1300);
#1157=AXIS2_PLACEMENT_3D('',#1613,#1301,#1302);
#1158=AXIS2_PLACEMENT_3D('',#1614,#1303,#1304);
#1159=AXIS2_PLACEMENT_3D('',#1617,#1307,#1308);
#1160=AXIS2_PLACEMENT_3D('',#1623,#1312,#1313);
#1161=AXIS2_PLACEMENT_3D('',#1625,#1314,#1315);
#1162=AXIS2_PLACEMENT_3D('',#1628,#1317,#1318);
#1163=AXIS2_PLACEMENT_3D('',#1629,#1319,#1320);
#1164=AXIS2_PLACEMENT_3D('',#1630,#1321,#1322);
#1165=AXIS2_PLACEMENT_3D('',#1633,#1324,#1325);
#1166=AXIS2_PLACEMENT_3D('',#1634,#1326,#1327);
#1167=AXIS2_PLACEMENT_3D('',#1635,#1328,#1329);
#1168=AXIS2_PLACEMENT_3D('',#1638,#1331,#1332);
#1169=AXIS2_PLACEMENT_3D('',#1639,#1333,#1334);
#1170=AXIS2_PLACEMENT_3D('',#1640,#1335,#1336);
#1171=AXIS2_PLACEMENT_3D('',#1643,#1338,#1339);
#1172=AXIS2_PLACEMENT_3D('',#1644,#1340,#1341);
#1173=AXIS2_PLACEMENT_3D('',#1645,#1342,#1343);
#1174=AXIS2_PLACEMENT_3D('',#1648,#1345,#1346);
#1175=AXIS2_PLACEMENT_3D('',#1649,#1347,#1348);
#1176=AXIS2_PLACEMENT_3D('',#1650,#1349,#1350);
#1177=AXIS2_PLACEMENT_3D('',#1653,#1351,#1352);
#1178=AXIS2_PLACEMENT_3D('',#1656,#1355,#1356);
#1179=AXIS2_PLACEMENT_3D('',#1665,#1361,#1362);
#1180=AXIS2_PLACEMENT_3D('',#1668,#1363,#1364);
#1181=AXIS2_PLACEMENT_3D('',#1672,#1368,#1369);
#1182=AXIS2_PLACEMENT_3D('',#1674,#1370,#1371);
#1183=AXIS2_PLACEMENT_3D('',#1676,#1373,#1374);
#1184=AXIS2_PLACEMENT_3D('',#1678,#1375,#1376);
#1185=AXIS2_PLACEMENT_3D('',#1684,#1380,#1381);
#1186=AXIS2_PLACEMENT_3D('',#1690,#1385,#1386);
#1187=AXIS2_PLACEMENT_3D('',#1692,#1388,#1389);
#1188=AXIS2_PLACEMENT_3D('',#1694,#1391,#1392);
#1189=AXIS2_PLACEMENT_3D('',#1697,#1395,#1396);
#1190=AXIS2_PLACEMENT_3D('',#1703,#1400,#1401);
#1191=AXIS2_PLACEMENT_3D('',#1710,#1406,#1407);
#1192=AXIS2_PLACEMENT_3D('',#1716,#1411,#1412);
#1193=AXIS2_PLACEMENT_3D('',#1719,#1415,#1416);
#1194=AXIS2_PLACEMENT_3D('',#1728,#1421,#1422);
#1195=AXIS2_PLACEMENT_3D('',#1737,#1427,#1428);
#1196=AXIS2_PLACEMENT_3D('',#1743,#1432,#1433);
#1197=AXIS2_PLACEMENT_3D('',#1747,#1436,#1437);
#1198=AXIS2_PLACEMENT_3D('',#1751,#1440,#1441);
#1199=AXIS2_PLACEMENT_3D('',#1757,#1445,#1446);
#1200=AXIS2_PLACEMENT_3D('',#1763,#1450,#1451);
#1201=AXIS2_PLACEMENT_3D('',#1765,#1453,#1454);
#1202=AXIS2_PLACEMENT_3D('',#1778,#1462,#1463);
#1203=AXIS2_PLACEMENT_3D('',#1787,#1468,#1469);
#1204=AXIS2_PLACEMENT_3D('',#1796,#1474,#1475);
#1205=AXIS2_PLACEMENT_3D('',#1799,#1478,#1479);
#1206=AXIS2_PLACEMENT_3D('',#1801,#1481,#1482);
#1207=AXIS2_PLACEMENT_3D('',#1803,#1484,#1485);
#1208=AXIS2_PLACEMENT_3D('',#1809,#1489,#1490);
#1209=AXIS2_PLACEMENT_3D('',#1815,#1494,#1495);
#1210=AXIS2_PLACEMENT_3D('',#1817,#1497,#1498);
#1211=AXIS2_PLACEMENT_3D('',#1823,#1503,#1504);
#1212=AXIS2_PLACEMENT_3D('',#1825,#1506,#1507);
#1213=AXIS2_PLACEMENT_3D('',#1826,#1508,#1509);
#1214=AXIS2_PLACEMENT_3D('',#1827,#1510,#1511);
#1215=DIRECTION('axis',(0.,0.,1.));
#1216=DIRECTION('refdir',(1.,0.,0.));
#1217=DIRECTION('center_axis',(0.,-1.,-1.11022302462516E-16));
#1218=DIRECTION('ref_axis',(0.707106781186548,0.,-0.707106781186548));
#1219=DIRECTION('center_axis',(0.,1.,1.34572487833352E-16));
#1220=DIRECTION('ref_axis',(0.707106781186548,0.,0.707106781186547));
#1221=DIRECTION('',(0.,-1.,-1.11022302462516E-16));
#1222=DIRECTION('center_axis',(0.,-1.,-1.43254583822601E-16));
#1223=DIRECTION('ref_axis',(0.707106781186548,0.,-0.707106781186548));
#1224=DIRECTION('',(0.,1.,1.11022302462516E-16));
#1225=DIRECTION('center_axis',(0.,1.11022302462516E-16,-1.));
#1226=DIRECTION('ref_axis',(1.,0.,0.));
#1227=DIRECTION('',(1.,0.,0.));
#1228=DIRECTION('',(0.,1.,1.11022302462516E-16));
#1229=DIRECTION('',(-1.,0.,0.));
#1230=DIRECTION('center_axis',(0.,-1.,0.));
#1231=DIRECTION('ref_axis',(0.707106781186548,0.,-0.707106781186548));
#1232=DIRECTION('center_axis',(0.,1.,1.34572487833352E-16));
#1233=DIRECTION('ref_axis',(0.707106781186548,0.,0.707106781186548));
#1234=DIRECTION('',(0.,-1.,0.));
#1235=DIRECTION('center_axis',(0.,-1.,-1.43254583822601E-16));
#1236=DIRECTION('ref_axis',(0.707106781186548,0.,-0.707106781186548));
#1237=DIRECTION('',(0.,1.,0.));
#1238=DIRECTION('center_axis',(0.,0.,-1.));
#1239=DIRECTION('ref_axis',(1.,0.,0.));
#1240=DIRECTION('',(1.,0.,0.));
#1241=DIRECTION('',(0.,1.,0.));
#1242=DIRECTION('',(-1.,0.,0.));
#1243=DIRECTION('center_axis',(0.,-1.,0.));
#1244=DIRECTION('ref_axis',(0.707106781186548,0.,-0.707106781186547));
#1245=DIRECTION('center_axis',(0.,1.,1.34572487833352E-16));
#1246=DIRECTION('ref_axis',(0.707106781186546,0.,0.707106781186549));
#1247=DIRECTION('',(0.,-1.,0.));
#1248=DIRECTION('center_axis',(0.,-1.,-1.43254583822601E-16));
#1249=DIRECTION('ref_axis',(0.707106781186548,0.,-0.707106781186547));
#1250=DIRECTION('',(0.,1.,0.));
#1251=DIRECTION('center_axis',(0.,0.,-1.));
#1252=DIRECTION('ref_axis',(1.,0.,0.));
#1253=DIRECTION('',(1.,0.,0.));
#1254=DIRECTION('',(0.,1.,0.));
#1255=DIRECTION('',(-1.,0.,0.));
#1256=DIRECTION('center_axis',(0.,-1.11022302462516E-16,1.));
#1257=DIRECTION('ref_axis',(-1.,0.,0.));
#1258=DIRECTION('',(1.,0.,0.));
#1259=DIRECTION('',(0.,-1.,-1.11022302462516E-16));
#1260=DIRECTION('',(-1.,0.,0.));
#1261=DIRECTION('center_axis',(0.,0.,1.));
#1262=DIRECTION('ref_axis',(-1.,0.,0.));
#1263=DIRECTION('',(1.,0.,0.));
#1264=DIRECTION('',(0.,-1.,0.));
#1265=DIRECTION('',(-1.,0.,0.));
#1266=DIRECTION('center_axis',(0.,0.,1.));
#1267=DIRECTION('ref_axis',(-1.,0.,0.));
#1268=DIRECTION('',(1.,0.,0.));
#1269=DIRECTION('',(0.,-1.,0.));
#1270=DIRECTION('',(-1.,0.,0.));
#1271=DIRECTION('center_axis',(1.,0.,0.));
#1272=DIRECTION('ref_axis',(0.,0.,-1.));
#1273=DIRECTION('',(0.,-1.34572487833352E-16,1.));
#1274=DIRECTION('',(0.,-1.43254583822601E-16,1.));
#1275=DIRECTION('center_axis',(1.,0.,0.));
#1276=DIRECTION('ref_axis',(0.,0.,-1.));
#1277=DIRECTION('',(0.,-1.43254583822601E-16,1.));
#1278=DIRECTION('',(0.,-1.,-4.03717463500057E-16));
#1279=DIRECTION('',(0.,2.86509167645202E-16,-1.));
#1280=DIRECTION('',(0.,1.,0.));
#1281=DIRECTION('',(0.,-1.43254583822601E-16,1.));
#1282=DIRECTION('',(0.,-1.34572487833352E-16,1.));
#1283=DIRECTION('center_axis',(-1.,0.,0.));
#1284=DIRECTION('ref_axis',(0.,-0.916515138991168,-0.400000000000001));
#1285=DIRECTION('',(0.,1.,0.));
#1286=DIRECTION('center_axis',(-1.,0.,0.));
#1287=DIRECTION('ref_axis',(0.,-0.399999999999993,0.916515138991171));
#1288=DIRECTION('',(0.,3.02788097625043E-16,-1.));
#1289=DIRECTION('center_axis',(-1.,0.,0.));
#1290=DIRECTION('ref_axis',(0.,0.916515138991169,0.399999999999999));
#1291=DIRECTION('',(0.,-1.,-1.70803542250024E-16));
#1292=DIRECTION('center_axis',(-1.,0.,0.));
#1293=DIRECTION('ref_axis',(0.,0.399999999999996,-0.91651513899117));
#1294=DIRECTION('',(0.,-1.34572487833352E-16,1.));
#1295=DIRECTION('center_axis',(1.,0.,0.));
#1296=DIRECTION('ref_axis',(0.,0.,1.));
#1297=DIRECTION('center_axis',(1.,0.,0.));
#1298=DIRECTION('ref_axis',(0.,0.,1.));
#1299=DIRECTION('center_axis',(1.,0.,0.));
#1300=DIRECTION('ref_axis',(0.,0.,1.));
#1301=DIRECTION('center_axis',(1.,0.,0.));
#1302=DIRECTION('ref_axis',(0.,0.,1.));
#1303=DIRECTION('center_axis',(1.,0.,0.));
#1304=DIRECTION('ref_axis',(0.,0.,-1.));
#1305=DIRECTION('',(0.,-1.34572487833352E-16,1.));
#1306=DIRECTION('',(0.,-1.43254583822601E-16,1.));
#1307=DIRECTION('center_axis',(0.,1.,1.34572487833352E-16));
#1308=DIRECTION('ref_axis',(0.,-1.34572487833352E-16,1.));
#1309=DIRECTION('',(1.,0.,0.));
#1310=DIRECTION('',(0.,-1.34572487833352E-16,1.));
#1311=DIRECTION('',(-1.,0.,0.));
#1312=DIRECTION('center_axis',(0.,0.,-1.));
#1313=DIRECTION('ref_axis',(1.,0.,0.));
#1314=DIRECTION('center_axis',(0.,1.70803542250024E-16,-1.));
#1315=DIRECTION('ref_axis',(1.,0.,0.));
#1316=DIRECTION('',(0.,0.,-1.));
#1317=DIRECTION('center_axis',(0.,1.70803542250024E-16,-1.));
#1318=DIRECTION('ref_axis',(1.,0.,0.));
#1319=DIRECTION('center_axis',(0.,-1.70803542250024E-16,1.));
#1320=DIRECTION('ref_axis',(1.,0.,0.));
#1321=DIRECTION('center_axis',(1.,0.,0.));
#1322=DIRECTION('ref_axis',(0.,0.,1.));
#1323=DIRECTION('',(1.,0.,0.));
#1324=DIRECTION('center_axis',(1.,0.,0.));
#1325=DIRECTION('ref_axis',(0.,0.,1.));
#1326=DIRECTION('center_axis',(-1.,0.,0.));
#1327=DIRECTION('ref_axis',(0.,0.,1.));
#1328=DIRECTION('center_axis',(1.,0.,0.));
#1329=DIRECTION('ref_axis',(0.,0.,1.));
#1330=DIRECTION('',(1.,0.,0.));
#1331=DIRECTION('center_axis',(1.,0.,0.));
#1332=DIRECTION('ref_axis',(0.,0.,1.));
#1333=DIRECTION('center_axis',(-1.,0.,0.));
#1334=DIRECTION('ref_axis',(0.,0.,1.));
#1335=DIRECTION('center_axis',(1.,0.,0.));
#1336=DIRECTION('ref_axis',(0.,0.,1.));
#1337=DIRECTION('',(1.,0.,0.));
#1338=DIRECTION('center_axis',(1.,0.,0.));
#1339=DIRECTION('ref_axis',(0.,0.,1.));
#1340=DIRECTION('center_axis',(-1.,0.,0.));
#1341=DIRECTION('ref_axis',(0.,0.,1.));
#1342=DIRECTION('center_axis',(1.,0.,0.));
#1343=DIRECTION('ref_axis',(0.,0.,1.));
#1344=DIRECTION('',(1.,0.,0.));
#1345=DIRECTION('center_axis',(1.,0.,0.));
#1346=DIRECTION('ref_axis',(0.,0.,1.));
#1347=DIRECTION('center_axis',(-1.,0.,0.));
#1348=DIRECTION('ref_axis',(0.,0.,1.));
#1349=DIRECTION('center_axis',(-1.,0.,0.));
#1350=DIRECTION('ref_axis',(0.,-0.70710678118655,-0.707106781186545));
#1351=DIRECTION('center_axis',(1.,0.,0.));
#1352=DIRECTION('ref_axis',(0.,-0.399999999999993,0.916515138991171));
#1353=DIRECTION('',(1.,0.,0.));
#1354=DIRECTION('',(-1.,0.,0.));
#1355=DIRECTION('center_axis',(0.,3.41607084500048E-16,-1.));
#1356=DIRECTION('ref_axis',(0.,-1.,-3.41607084500048E-16));
#1357=DIRECTION('',(-6.05576195250085E-16,1.,1.70803542250024E-16));
#1358=DIRECTION('',(-1.,0.,0.));
#1359=DIRECTION('',(2.01858731750028E-16,-1.,-1.70803542250024E-16));
#1360=DIRECTION('',(-1.,-4.9960036108132E-16,-8.53335113820806E-32));
#1361=DIRECTION('center_axis',(-1.,0.,0.));
#1362=DIRECTION('ref_axis',(0.,-0.707106781186548,0.707106781186547));
#1363=DIRECTION('center_axis',(1.,0.,0.));
#1364=DIRECTION('ref_axis',(0.,0.916515138991169,0.399999999999999));
#1365=DIRECTION('',(1.,0.,0.));
#1366=DIRECTION('',(1.,0.,0.));
#1367=DIRECTION('',(-1.,0.,0.));
#1368=DIRECTION('center_axis',(-1.,0.,0.));
#1369=DIRECTION('ref_axis',(0.,0.707106781186549,-0.707106781186546));
#1370=DIRECTION('center_axis',(1.,0.,0.));
#1371=DIRECTION('ref_axis',(0.,-0.916515138991168,-0.400000000000001));
#1372=DIRECTION('',(1.,0.,0.));
#1373=DIRECTION('center_axis',(-1.,0.,0.));
#1374=DIRECTION('ref_axis',(0.,0.707106781186548,0.707106781186547));
#1375=DIRECTION('center_axis',(1.,0.,0.));
#1376=DIRECTION('ref_axis',(0.,0.399999999999996,-0.91651513899117));
#1377=DIRECTION('',(-1.,0.,0.));
#1378=DIRECTION('',(-1.,0.,0.));
#1379=DIRECTION('',(-1.,0.,0.));
#1380=DIRECTION('center_axis',(0.,3.41607084500048E-16,-1.));
#1381=DIRECTION('ref_axis',(0.,-1.,-3.41607084500048E-16));
#1382=DIRECTION('',(2.01858731750028E-16,-1.,-1.70803542250024E-16));
#1383=DIRECTION('',(-6.05576195250085E-16,1.,1.70803542250024E-16));
#1384=DIRECTION('',(1.,0.,0.));
#1385=DIRECTION('center_axis',(0.,-1.,-3.02788097625043E-16));
#1386=DIRECTION('ref_axis',(0.,3.02788097625043E-16,-1.));
#1387=DIRECTION('',(0.,3.02788097625043E-16,-1.));
#1388=DIRECTION('center_axis',(0.,0.,-1.));
#1389=DIRECTION('ref_axis',(0.,1.,0.));
#1390=DIRECTION('',(0.,1.,0.));
#1391=DIRECTION('center_axis',(0.,-1.70803542250024E-16,1.));
#1392=DIRECTION('ref_axis',(0.,-1.,-1.70803542250024E-16));
#1393=DIRECTION('',(0.,-1.,-1.70803542250024E-16));
#1394=DIRECTION('',(2.01858731750028E-16,-1.,-1.70803542250024E-16));
#1395=DIRECTION('center_axis',(1.,2.01858731750028E-16,0.));
#1396=DIRECTION('ref_axis',(2.01858731750028E-16,-1.,-1.70803542250024E-16));
#1397=DIRECTION('',(0.,0.,-1.));
#1398=DIRECTION('',(-2.01858731750028E-16,1.,4.03717463500057E-16));
#1399=DIRECTION('',(0.,0.,-1.));
#1400=DIRECTION('center_axis',(-1.,-6.05576195250085E-16,0.));
#1401=DIRECTION('ref_axis',(-6.05576195250085E-16,1.,1.70803542250024E-16));
#1402=DIRECTION('',(0.,0.,-1.));
#1403=DIRECTION('',(6.05576195250085E-16,-1.,-4.03717463500057E-16));
#1404=DIRECTION('',(0.,0.,-1.));
#1405=DIRECTION('',(-6.05576195250085E-16,1.,1.70803542250024E-16));
#1406=DIRECTION('center_axis',(0.,-4.03717463500057E-16,1.));
#1407=DIRECTION('ref_axis',(0.,-1.,-4.03717463500057E-16));
#1408=DIRECTION('',(1.,0.,0.));
#1409=DIRECTION('',(0.,-1.,-4.03717463500057E-16));
#1410=DIRECTION('',(1.,0.,0.));
#1411=DIRECTION('center_axis',(0.,-4.03717463500057E-16,1.));
#1412=DIRECTION('ref_axis',(0.,-1.,-4.03717463500057E-16));
#1413=DIRECTION('',(1.,0.,0.));
#1414=DIRECTION('',(1.,0.,0.));
#1415=DIRECTION('center_axis',(0.274721127897378,-0.961523947640823,-2.13501205079863E-16));
#1416=DIRECTION('ref_axis',(0.961523947640823,0.274721127897378,5.54548584623021E-17));
#1417=DIRECTION('',(0.961523947640823,0.274721127897378,5.54548584623021E-17));
#1418=DIRECTION('',(0.,2.22044604925031E-16,-1.));
#1419=DIRECTION('',(-0.961523947640823,-0.274721127897378,0.));
#1420=DIRECTION('',(0.,-2.22044604925031E-16,1.));
#1421=DIRECTION('center_axis',(0.274721127897378,0.961523947640823,2.13501205079863E-16));
#1422=DIRECTION('ref_axis',(-0.961523947640823,0.274721127897378,5.54548584623021E-17));
#1423=DIRECTION('',(-0.961523947640823,0.274721127897378,5.54548584623021E-17));
#1424=DIRECTION('',(0.,-2.22044604925031E-16,1.));
#1425=DIRECTION('',(0.961523947640823,-0.274721127897378,0.));
#1426=DIRECTION('',(0.,-2.22044604925031E-16,1.));
#1427=DIRECTION('center_axis',(0.,2.01858731750028E-16,-1.));
#1428=DIRECTION('ref_axis',(0.,-1.,-2.01858731750028E-16));
#1429=DIRECTION('',(0.,-1.,-2.01858731750028E-16));
#1430=DIRECTION('',(-1.,0.,0.));
#1431=DIRECTION('',(0.,1.,2.01858731750028E-16));
#1432=DIRECTION('center_axis',(-1.,0.,0.));
#1433=DIRECTION('ref_axis',(0.,0.,1.));
#1434=DIRECTION('',(0.,1.,0.));
#1435=DIRECTION('',(0.,-1.43254583822601E-16,1.));
#1436=DIRECTION('center_axis',(0.,0.,1.));
#1437=DIRECTION('ref_axis',(0.,1.,0.));
#1438=DIRECTION('',(0.,-1.,0.));
#1439=DIRECTION('',(1.,0.,0.));
#1440=DIRECTION('center_axis',(0.,2.01858731750028E-16,-1.));
#1441=DIRECTION('ref_axis',(0.,-1.,-2.01858731750028E-16));
#1442=DIRECTION('',(0.,1.,2.01858731750028E-16));
#1443=DIRECTION('',(1.,0.,0.));
#1444=DIRECTION('',(0.,-1.,-2.01858731750028E-16));
#1445=DIRECTION('center_axis',(0.,0.,1.));
#1446=DIRECTION('ref_axis',(0.,1.,0.));
#1447=DIRECTION('',(0.,1.,0.));
#1448=DIRECTION('',(-1.,0.,0.));
#1449=DIRECTION('',(0.,-1.,0.));
#1450=DIRECTION('center_axis',(-1.,0.,0.));
#1451=DIRECTION('ref_axis',(0.,0.,1.));
#1452=DIRECTION('',(0.,2.86509167645202E-16,-1.));
#1453=DIRECTION('center_axis',(0.,1.,1.43254583822601E-16));
#1454=DIRECTION('ref_axis',(0.,-1.43254583822601E-16,1.));
#1455=DIRECTION('',(1.,0.,0.));
#1456=DIRECTION('',(0.,-1.43254583822601E-16,1.));
#1457=DIRECTION('',(-1.,0.,0.));
#1458=DIRECTION('',(0.,-1.43254583822601E-16,1.));
#1459=DIRECTION('',(1.,0.,0.));
#1460=DIRECTION('',(0.,-1.43254583822601E-16,1.));
#1461=DIRECTION('',(0.,-1.43254583822601E-16,1.));
#1462=DIRECTION('center_axis',(0.274721127897378,0.961523947640823,-2.13501205079863E-16));
#1463=DIRECTION('ref_axis',(0.961523947640823,-0.274721127897378,5.54548584623021E-17));
#1464=DIRECTION('',(0.961523947640823,-0.274721127897378,5.54548584623021E-17));
#1465=DIRECTION('',(0.,2.22044604925031E-16,1.));
#1466=DIRECTION('',(-0.961523947640823,0.274721127897378,-1.10909716924604E-16));
#1467=DIRECTION('',(0.,-2.22044604925031E-16,-1.));
#1468=DIRECTION('center_axis',(0.274721127897378,-0.961523947640823,2.13501205079863E-16));
#1469=DIRECTION('ref_axis',(-0.961523947640823,-0.274721127897378,5.54548584623021E-17));
#1470=DIRECTION('',(-0.961523947640823,-0.274721127897378,5.54548584623021E-17));
#1471=DIRECTION('',(0.,-2.22044604925031E-16,-1.));
#1472=DIRECTION('',(0.961523947640823,0.274721127897378,-1.10909716924604E-16));
#1473=DIRECTION('',(0.,-2.22044604925031E-16,-1.));
#1474=DIRECTION('center_axis',(0.,-4.03717463500057E-16,-1.));
#1475=DIRECTION('ref_axis',(0.,-1.,4.03717463500057E-16));
#1476=DIRECTION('',(0.,-1.,4.03717463500057E-16));
#1477=DIRECTION('',(0.,1.,-4.03717463500057E-16));
#1478=DIRECTION('center_axis',(-1.,0.,0.));
#1479=DIRECTION('ref_axis',(0.,0.,1.));
#1480=DIRECTION('',(0.,1.,-2.01858731750029E-16));
#1481=DIRECTION('center_axis',(0.,2.01858731750029E-16,1.));
#1482=DIRECTION('ref_axis',(0.,1.,-2.01858731750029E-16));
#1483=DIRECTION('',(0.,-1.,2.01858731750029E-16));
#1484=DIRECTION('center_axis',(0.,-4.03717463500057E-16,-1.));
#1485=DIRECTION('ref_axis',(0.,-1.,4.03717463500057E-16));
#1486=DIRECTION('',(0.,1.,-4.03717463500057E-16));
#1487=DIRECTION('',(1.,0.,0.));
#1488=DIRECTION('',(0.,-1.,4.03717463500057E-16));
#1489=DIRECTION('center_axis',(0.,2.01858731750029E-16,1.));
#1490=DIRECTION('ref_axis',(0.,1.,-2.01858731750029E-16));
#1491=DIRECTION('',(0.,1.,-2.01858731750029E-16));
#1492=DIRECTION('',(-1.,0.,0.));
#1493=DIRECTION('',(0.,-1.,2.01858731750029E-16));
#1494=DIRECTION('center_axis',(-1.,0.,0.));
#1495=DIRECTION('ref_axis',(0.,0.,1.));
#1496=DIRECTION('',(0.,2.86509167645202E-16,-1.));
#1497=DIRECTION('center_axis',(0.,-1.,-2.86509167645202E-16));
#1498=DIRECTION('ref_axis',(0.,2.86509167645202E-16,-1.));
#1499=DIRECTION('',(0.,2.86509167645202E-16,-1.));
#1500=DIRECTION('',(0.,2.86509167645202E-16,-1.));
#1501=DIRECTION('',(1.,0.,0.));
#1502=DIRECTION('',(0.,2.86509167645202E-16,-1.));
#1503=DIRECTION('center_axis',(1.,0.,0.));
#1504=DIRECTION('ref_axis',(0.,0.,-1.));
#1505=DIRECTION('',(0.,1.,0.));
#1506=DIRECTION('center_axis',(0.,0.,-1.));
#1507=DIRECTION('ref_axis',(0.,1.,0.));
#1508=DIRECTION('center_axis',(0.,-1.70803542250024E-16,1.));
#1509=DIRECTION('ref_axis',(0.,-1.,-1.70803542250024E-16));
#1510=DIRECTION('center_axis',(1.,0.,0.));
#1511=DIRECTION('ref_axis',(0.,0.,-1.));
#1512=CARTESIAN_POINT('',(0.,0.,0.));
#1513=CARTESIAN_POINT('Origin',(6.00000000000001,13.,5.50000000000001));
#1514=CARTESIAN_POINT('',(6.00000000000001,13.,6.50000000000001));
#1515=CARTESIAN_POINT('',(6.00000000000001,13.,4.50000000000001));
#1516=CARTESIAN_POINT('Origin',(6.00000000000001,13.,5.50000000000001));
#1517=CARTESIAN_POINT('',(6.00000000000001,11.,4.50000000000001));
#1518=CARTESIAN_POINT('',(6.00000000000001,13.,4.50000000000001));
#1519=CARTESIAN_POINT('',(6.00000000000001,11.,6.50000000000001));
#1520=CARTESIAN_POINT('Origin',(6.00000000000001,11.,5.50000000000001));
#1521=CARTESIAN_POINT('',(6.00000000000001,13.,6.50000000000001));
#1522=CARTESIAN_POINT('Origin',(-7.7715611723761E-15,13.,4.50000000000001));
#1523=CARTESIAN_POINT('',(-7.7715611723761E-15,13.,4.50000000000001));
#1524=CARTESIAN_POINT('',(-3.88578058618805E-15,13.,4.50000000000001));
#1525=CARTESIAN_POINT('',(-7.7715611723761E-15,11.,4.50000000000001));
#1526=CARTESIAN_POINT('',(0.,6.5,4.50000000000001));
#1527=CARTESIAN_POINT('',(-3.88578058618805E-15,11.,4.50000000000001));
#1528=CARTESIAN_POINT('Origin',(6.,13.,-12.));
#1529=CARTESIAN_POINT('',(6.,13.,-11.));
#1530=CARTESIAN_POINT('',(6.,13.,-13.));
#1531=CARTESIAN_POINT('Origin',(6.,13.,-12.));
#1532=CARTESIAN_POINT('',(6.,11.,-13.));
#1533=CARTESIAN_POINT('',(6.,13.,-13.));
#1534=CARTESIAN_POINT('',(6.,11.,-11.));
#1535=CARTESIAN_POINT('Origin',(6.,11.,-12.));
#1536=CARTESIAN_POINT('',(6.,13.,-11.));
#1537=CARTESIAN_POINT('Origin',(0.,13.,-13.));
#1538=CARTESIAN_POINT('',(0.,13.,-13.));
#1539=CARTESIAN_POINT('',(0.,13.,-13.));
#1540=CARTESIAN_POINT('',(0.,11.,-13.));
#1541=CARTESIAN_POINT('',(0.,6.5,-13.));
#1542=CARTESIAN_POINT('',(0.,11.,-13.));
#1543=CARTESIAN_POINT('Origin',(6.00000000000001,13.,-17.));
#1544=CARTESIAN_POINT('',(6.00000000000001,13.,-16.));
#1545=CARTESIAN_POINT('',(6.00000000000001,13.,-18.));
#1546=CARTESIAN_POINT('Origin',(6.00000000000001,13.,-17.));
#1547=CARTESIAN_POINT('',(6.00000000000001,11.,-18.));
#1548=CARTESIAN_POINT('',(6.00000000000001,13.,-18.));
#1549=CARTESIAN_POINT('',(6.00000000000001,11.,-16.));
#1550=CARTESIAN_POINT('Origin',(6.00000000000001,11.,-17.));
#1551=CARTESIAN_POINT('',(6.00000000000001,13.,-16.));
#1552=CARTESIAN_POINT('Origin',(-1.4432899320127E-14,13.,-18.));
#1553=CARTESIAN_POINT('',(-1.4432899320127E-14,13.,-18.));
#1554=CARTESIAN_POINT('',(-7.21644966006352E-15,13.,-18.));
#1555=CARTESIAN_POINT('',(-1.4432899320127E-14,11.,-18.));
#1556=CARTESIAN_POINT('',(0.,6.5,-18.));
#1557=CARTESIAN_POINT('',(-7.21644966006352E-15,11.,-18.));
#1558=CARTESIAN_POINT('Origin',(7.00000000000001,13.,6.50000000000001));
#1559=CARTESIAN_POINT('',(-5.55111512312578E-15,11.,6.50000000000001));
#1560=CARTESIAN_POINT('',(3.5,11.,6.50000000000001));
#1561=CARTESIAN_POINT('',(-5.55111512312578E-15,13.,6.50000000000001));
#1562=CARTESIAN_POINT('',(0.,6.49999999999999,6.50000000000001));
#1563=CARTESIAN_POINT('',(3.5,13.,6.50000000000001));
#1564=CARTESIAN_POINT('Origin',(7.,13.,-11.));
#1565=CARTESIAN_POINT('',(0.,11.,-11.));
#1566=CARTESIAN_POINT('',(3.5,11.,-11.));
#1567=CARTESIAN_POINT('',(0.,13.,-11.));
#1568=CARTESIAN_POINT('',(0.,6.5,-11.));
#1569=CARTESIAN_POINT('',(3.5,13.,-11.));
#1570=CARTESIAN_POINT('Origin',(7.,13.,-16.));
#1571=CARTESIAN_POINT('',(0.,11.,-16.));
#1572=CARTESIAN_POINT('',(3.5,11.,-16.));
#1573=CARTESIAN_POINT('',(0.,13.,-16.));
#1574=CARTESIAN_POINT('',(0.,6.5,-16.));
#1575=CARTESIAN_POINT('',(3.5,13.,-16.));
#1576=CARTESIAN_POINT('Origin',(0.,-4.44089209850063E-15,0.));
#1577=CARTESIAN_POINT('',(0.,13.,-33.));
#1578=CARTESIAN_POINT('',(0.,11.,-15.5));
#1579=CARTESIAN_POINT('Origin',(0.,-4.44089209850063E-15,0.));
#1580=CARTESIAN_POINT('',(0.,11.,31.));
#1581=CARTESIAN_POINT('',(0.,11.,-15.5));
#1582=CARTESIAN_POINT('',(0.,-11.,31.));
#1583=CARTESIAN_POINT('',(0.,5.49999999999998,31.));
#1584=CARTESIAN_POINT('',(0.,-11.,-31.));
#1585=CARTESIAN_POINT('',(0.,-11.,15.5));
#1586=CARTESIAN_POINT('',(0.,11.,-31.));
#1587=CARTESIAN_POINT('',(0.,-5.5,-31.));
#1588=CARTESIAN_POINT('',(0.,11.,-15.5));
#1589=CARTESIAN_POINT('',(0.,13.,-29.7087121525221));
#1590=CARTESIAN_POINT('',(0.,13.,-33.));
#1591=CARTESIAN_POINT('',(0.,9.70871215252208,-33.));
#1592=CARTESIAN_POINT('Origin',(0.,12.,-32.));
#1593=CARTESIAN_POINT('',(0.,-9.70871215252208,-33.));
#1594=CARTESIAN_POINT('',(0.,-13.,-33.));
#1595=CARTESIAN_POINT('',(0.,-13.,-29.7087121525221));
#1596=CARTESIAN_POINT('Origin',(0.,-12.,-32.));
#1597=CARTESIAN_POINT('',(0.,-13.,29.7087121525221));
#1598=CARTESIAN_POINT('',(0.,-13.,33.));
#1599=CARTESIAN_POINT('',(0.,-9.70871215252208,33.));
#1600=CARTESIAN_POINT('Origin',(0.,-12.,32.));
#1601=CARTESIAN_POINT('',(0.,9.70871215252208,33.));
#1602=CARTESIAN_POINT('',(0.,13.,33.));
#1603=CARTESIAN_POINT('',(0.,13.,29.7087121525221));
#1604=CARTESIAN_POINT('Origin',(0.,12.,32.));
#1605=CARTESIAN_POINT('',(0.,13.,-33.));
#1606=CARTESIAN_POINT('',(0.,12.,-32.85));
#1607=CARTESIAN_POINT('Origin',(0.,12.,-32.));
#1608=CARTESIAN_POINT('',(0.,12.,31.15));
#1609=CARTESIAN_POINT('Origin',(0.,12.,32.));
#1610=CARTESIAN_POINT('',(0.,-12.,-32.85));
#1611=CARTESIAN_POINT('Origin',(0.,-12.,-32.));
#1612=CARTESIAN_POINT('',(0.,-12.,31.15));
#1613=CARTESIAN_POINT('Origin',(0.,-12.,32.));
#1614=CARTESIAN_POINT('Origin',(0.,-4.44089209850063E-15,0.));
#1615=CARTESIAN_POINT('',(0.,13.,-33.));
#1616=CARTESIAN_POINT('',(0.,11.,-15.5));
#1617=CARTESIAN_POINT('Origin',(0.,13.,-33.));
#1618=CARTESIAN_POINT('',(50.,13.,29.7087121525221));
#1619=CARTESIAN_POINT('',(50.,13.,29.7087121525221));
#1620=CARTESIAN_POINT('',(50.,13.,-29.7087121525221));
#1621=CARTESIAN_POINT('',(50.,13.,-33.));
#1622=CARTESIAN_POINT('',(50.,13.,-29.7087121525221));
#1623=CARTESIAN_POINT('Origin',(20.1343894924561,7.43009011902961,33.));
#1624=CARTESIAN_POINT('',(19.1343894924561,7.43009011902961,33.));
#1625=CARTESIAN_POINT('Origin',(20.1343894924561,7.43009011902961,33.));
#1626=CARTESIAN_POINT('',(19.1343894924561,7.43009011902961,32.));
#1627=CARTESIAN_POINT('',(19.1343894924561,7.43009011902961,33.));
#1628=CARTESIAN_POINT('Origin',(20.1343894924561,7.43009011902961,32.));
#1629=CARTESIAN_POINT('Origin',(20.1343894924561,7.43009011902961,32.));
#1630=CARTESIAN_POINT('Origin',(0.,12.,-32.));
#1631=CARTESIAN_POINT('',(7.,12.,-32.85));
#1632=CARTESIAN_POINT('',(0.,12.,-32.85));
#1633=CARTESIAN_POINT('Origin',(7.,12.,-32.));
#1634=CARTESIAN_POINT('Origin',(7.,12.,-32.));
#1635=CARTESIAN_POINT('Origin',(0.,12.,32.));
#1636=CARTESIAN_POINT('',(7.,12.,31.15));
#1637=CARTESIAN_POINT('',(0.,12.,31.15));
#1638=CARTESIAN_POINT('Origin',(7.,12.,32.));
#1639=CARTESIAN_POINT('Origin',(7.,12.,32.));
#1640=CARTESIAN_POINT('Origin',(0.,-12.,-32.));
#1641=CARTESIAN_POINT('',(7.,-12.,-32.85));
#1642=CARTESIAN_POINT('',(0.,-12.,-32.85));
#1643=CARTESIAN_POINT('Origin',(7.,-12.,-32.));
#1644=CARTESIAN_POINT('Origin',(7.,-12.,-32.));
#1645=CARTESIAN_POINT('Origin',(0.,-12.,32.));
#1646=CARTESIAN_POINT('',(7.,-12.,31.15));
#1647=CARTESIAN_POINT('',(0.,-12.,31.15));
#1648=CARTESIAN_POINT('Origin',(7.,-12.,32.));
#1649=CARTESIAN_POINT('Origin',(7.,-12.,32.));
#1650=CARTESIAN_POINT('Origin',(50.,-12.,-32.));
#1651=CARTESIAN_POINT('',(50.,-13.,-29.7087121525221));
#1652=CARTESIAN_POINT('',(50.,-9.70871215252208,-33.));
#1653=CARTESIAN_POINT('Origin',(50.,-12.,-32.));
#1654=CARTESIAN_POINT('',(50.,-13.,-29.7087121525221));
#1655=CARTESIAN_POINT('',(50.,-9.70871215252208,-33.));
#1656=CARTESIAN_POINT('Origin',(50.,-9.70871215252208,33.));
#1657=CARTESIAN_POINT('',(26.,-11.,33.));
#1658=CARTESIAN_POINT('',(26.,-9.70871215252208,33.));
#1659=CARTESIAN_POINT('',(26.,0.999999999999993,33.));
#1660=CARTESIAN_POINT('',(31.,-9.70871215252208,33.));
#1661=CARTESIAN_POINT('',(50.,-9.70871215252208,33.));
#1662=CARTESIAN_POINT('',(31.,-11.,33.));
#1663=CARTESIAN_POINT('',(31.,12.,33.));
#1664=CARTESIAN_POINT('',(15.5,-11.,33.));
#1665=CARTESIAN_POINT('Origin',(50.,-12.,32.));
#1666=CARTESIAN_POINT('',(50.,-9.70871215252208,33.));
#1667=CARTESIAN_POINT('',(50.,-13.,29.7087121525221));
#1668=CARTESIAN_POINT('Origin',(50.,-12.,32.));
#1669=CARTESIAN_POINT('',(50.,-9.70871215252208,33.));
#1670=CARTESIAN_POINT('',(50.,-9.70871215252208,33.));
#1671=CARTESIAN_POINT('',(50.,-13.,29.7087121525221));
#1672=CARTESIAN_POINT('Origin',(50.,12.,-32.));
#1673=CARTESIAN_POINT('',(50.,9.70871215252208,-33.));
#1674=CARTESIAN_POINT('Origin',(50.,12.,-32.));
#1675=CARTESIAN_POINT('',(50.,9.70871215252208,-33.));
#1676=CARTESIAN_POINT('Origin',(50.,12.,32.));
#1677=CARTESIAN_POINT('',(50.,9.70871215252208,33.));
#1678=CARTESIAN_POINT('Origin',(50.,12.,32.));
#1679=CARTESIAN_POINT('',(26.,9.70871215252208,33.));
#1680=CARTESIAN_POINT('',(50.,9.70871215252208,33.));
#1681=CARTESIAN_POINT('',(31.,9.70871215252208,33.));
#1682=CARTESIAN_POINT('',(50.,9.70871215252208,33.));
#1683=CARTESIAN_POINT('',(50.,9.70871215252208,33.));
#1684=CARTESIAN_POINT('Origin',(50.,13.,33.));
#1685=CARTESIAN_POINT('',(31.,11.,33.));
#1686=CARTESIAN_POINT('',(31.,12.,33.));
#1687=CARTESIAN_POINT('',(26.,11.,33.));
#1688=CARTESIAN_POINT('',(26.,0.999999999999993,33.));
#1689=CARTESIAN_POINT('',(13.,11.,33.));
#1690=CARTESIAN_POINT('Origin',(0.,-13.,33.));
#1691=CARTESIAN_POINT('',(50.,-13.,33.));
#1692=CARTESIAN_POINT('Origin',(0.,-13.,-33.));
#1693=CARTESIAN_POINT('',(50.,-13.,-33.));
#1694=CARTESIAN_POINT('Origin',(0.,13.,33.));
#1695=CARTESIAN_POINT('',(50.,13.,33.));
#1696=CARTESIAN_POINT('',(31.,12.,33.));
#1697=CARTESIAN_POINT('Origin',(31.,11.,33.));
#1698=CARTESIAN_POINT('',(31.,11.,31.));
#1699=CARTESIAN_POINT('',(31.,11.,33.));
#1700=CARTESIAN_POINT('',(31.,-11.,31.));
#1701=CARTESIAN_POINT('',(31.,11.,31.));
#1702=CARTESIAN_POINT('',(31.,-11.,33.));
#1703=CARTESIAN_POINT('Origin',(26.,-11.,33.));
#1704=CARTESIAN_POINT('',(26.,-11.,31.));
#1705=CARTESIAN_POINT('',(26.,-11.,33.));
#1706=CARTESIAN_POINT('',(26.,11.,31.));
#1707=CARTESIAN_POINT('',(26.,-8.37713736762619E-15,31.));
#1708=CARTESIAN_POINT('',(26.,11.,33.));
#1709=CARTESIAN_POINT('',(26.,0.999999999999993,33.));
#1710=CARTESIAN_POINT('Origin',(0.,11.,31.));
#1711=CARTESIAN_POINT('',(48.,11.,31.));
#1712=CARTESIAN_POINT('',(0.,11.,31.));
#1713=CARTESIAN_POINT('',(48.,-11.,31.));
#1714=CARTESIAN_POINT('',(48.,11.,31.));
#1715=CARTESIAN_POINT('',(0.,-11.,31.));
#1716=CARTESIAN_POINT('Origin',(0.,11.,31.));
#1717=CARTESIAN_POINT('',(0.,-11.,31.));
#1718=CARTESIAN_POINT('',(0.,11.,31.));
#1719=CARTESIAN_POINT('Origin',(41.,-8.00000000000001,21.));
#1720=CARTESIAN_POINT('',(41.,-8.,21.));
#1721=CARTESIAN_POINT('',(48.,-6.00000000000001,21.));
#1722=CARTESIAN_POINT('',(46.7452830188679,-6.35849056603774,21.));
#1723=CARTESIAN_POINT('',(41.,-8.,26.));
#1724=CARTESIAN_POINT('',(41.,-8.00000000000001,22.25));
#1725=CARTESIAN_POINT('',(48.,-6.00000000000001,26.));
#1726=CARTESIAN_POINT('',(43.8396226415094,-7.18867924528302,26.));
#1727=CARTESIAN_POINT('',(48.,-6.00000000000001,21.));
#1728=CARTESIAN_POINT('Origin',(48.,6.,21.));
#1729=CARTESIAN_POINT('',(48.,6.,21.));
#1730=CARTESIAN_POINT('',(41.,8.,21.));
#1731=CARTESIAN_POINT('',(47.3396226415094,6.18867924528302,21.));
#1732=CARTESIAN_POINT('',(48.,6.,26.));
#1733=CARTESIAN_POINT('',(48.,6.,21.));
#1734=CARTESIAN_POINT('',(41.,7.99999999999999,26.));
#1735=CARTESIAN_POINT('',(50.2452830188679,5.35849056603773,26.));
#1736=CARTESIAN_POINT('',(41.,8.,22.25));
#1737=CARTESIAN_POINT('Origin',(48.,11.,21.));
#1738=CARTESIAN_POINT('',(41.,11.,21.));
#1739=CARTESIAN_POINT('',(41.,11.,21.));
#1740=CARTESIAN_POINT('',(48.,11.,21.));
#1741=CARTESIAN_POINT('',(24.,11.,21.));
#1742=CARTESIAN_POINT('',(48.,5.49999999999999,21.));
#1743=CARTESIAN_POINT('Origin',(41.,-1.11022302462516E-14,23.5));
#1744=CARTESIAN_POINT('',(41.,11.,26.));
#1745=CARTESIAN_POINT('',(41.,-11.,26.));
#1746=CARTESIAN_POINT('',(41.,11.,-3.75));
#1747=CARTESIAN_POINT('Origin',(48.,-11.,26.));
#1748=CARTESIAN_POINT('',(48.,11.,26.));
#1749=CARTESIAN_POINT('',(48.,-5.50000000000001,26.));
#1750=CARTESIAN_POINT('',(24.,11.,26.));
#1751=CARTESIAN_POINT('Origin',(48.,11.,21.));
#1752=CARTESIAN_POINT('',(48.,-11.,21.));
#1753=CARTESIAN_POINT('',(48.,5.49999999999999,21.));
#1754=CARTESIAN_POINT('',(41.,-11.,21.));
#1755=CARTESIAN_POINT('',(24.,-11.,21.));
#1756=CARTESIAN_POINT('',(41.,11.,21.));
#1757=CARTESIAN_POINT('Origin',(48.,-11.,26.));
#1758=CARTESIAN_POINT('',(41.,-11.,26.));
#1759=CARTESIAN_POINT('',(41.,-11.,26.));
#1760=CARTESIAN_POINT('',(48.,-11.,26.));
#1761=CARTESIAN_POINT('',(24.,-11.,26.));
#1762=CARTESIAN_POINT('',(48.,-5.50000000000001,26.));
#1763=CARTESIAN_POINT('Origin',(41.,-1.11022302462516E-14,23.5));
#1764=CARTESIAN_POINT('',(41.,-11.,27.25));
#1765=CARTESIAN_POINT('Origin',(0.,11.,-31.));
#1766=CARTESIAN_POINT('',(48.,11.,-31.));
#1767=CARTESIAN_POINT('',(0.,11.,-31.));
#1768=CARTESIAN_POINT('',(48.,11.,-26.));
#1769=CARTESIAN_POINT('',(48.,11.,-31.));
#1770=CARTESIAN_POINT('',(41.,11.,-26.));
#1771=CARTESIAN_POINT('',(24.,11.,-26.));
#1772=CARTESIAN_POINT('',(41.,11.,-21.));
#1773=CARTESIAN_POINT('',(41.,11.,-27.25));
#1774=CARTESIAN_POINT('',(48.,11.,-21.));
#1775=CARTESIAN_POINT('',(24.,11.,-21.));
#1776=CARTESIAN_POINT('',(48.,11.,-31.));
#1777=CARTESIAN_POINT('',(48.,11.,-31.));
#1778=CARTESIAN_POINT('Origin',(41.,8.00000000000001,-21.));
#1779=CARTESIAN_POINT('',(41.,8.00000000000001,-21.));
#1780=CARTESIAN_POINT('',(48.,6.00000000000001,-21.));
#1781=CARTESIAN_POINT('',(46.7452830188679,6.35849056603774,-21.));
#1782=CARTESIAN_POINT('',(41.,8.,-26.));
#1783=CARTESIAN_POINT('',(41.,8.00000000000001,-22.25));
#1784=CARTESIAN_POINT('',(48.,6.,-26.));
#1785=CARTESIAN_POINT('',(43.8396226415095,7.18867924528302,-26.));
#1786=CARTESIAN_POINT('',(48.,6.00000000000001,-21.));
#1787=CARTESIAN_POINT('Origin',(48.,-6.,-21.));
#1788=CARTESIAN_POINT('',(48.,-6.,-21.));
#1789=CARTESIAN_POINT('',(41.,-8.,-21.));
#1790=CARTESIAN_POINT('',(47.3396226415094,-6.18867924528302,-21.));
#1791=CARTESIAN_POINT('',(48.,-6.,-26.));
#1792=CARTESIAN_POINT('',(48.,-6.,-21.));
#1793=CARTESIAN_POINT('',(41.,-8.,-26.));
#1794=CARTESIAN_POINT('',(50.2452830188679,-5.35849056603774,-26.));
#1795=CARTESIAN_POINT('',(41.,-8.,-22.25));
#1796=CARTESIAN_POINT('Origin',(48.,11.,-26.));
#1797=CARTESIAN_POINT('',(41.,11.,-26.));
#1798=CARTESIAN_POINT('',(48.,5.49999999999999,-26.));
#1799=CARTESIAN_POINT('Origin',(41.,0.,-23.5));
#1800=CARTESIAN_POINT('',(41.,-11.,-21.));
#1801=CARTESIAN_POINT('Origin',(48.,-11.,-21.));
#1802=CARTESIAN_POINT('',(48.,-5.50000000000001,-21.));
#1803=CARTESIAN_POINT('Origin',(48.,11.,-26.));
#1804=CARTESIAN_POINT('',(48.,-11.,-26.));
#1805=CARTESIAN_POINT('',(48.,5.49999999999999,-26.));
#1806=CARTESIAN_POINT('',(41.,-11.,-26.));
#1807=CARTESIAN_POINT('',(24.,-11.,-26.));
#1808=CARTESIAN_POINT('',(41.,11.,-26.));
#1809=CARTESIAN_POINT('Origin',(48.,-11.,-21.));
#1810=CARTESIAN_POINT('',(41.,-11.,-21.));
#1811=CARTESIAN_POINT('',(41.,-11.,-21.));
#1812=CARTESIAN_POINT('',(48.,-11.,-21.));
#1813=CARTESIAN_POINT('',(24.,-11.,-21.));
#1814=CARTESIAN_POINT('',(48.,-5.50000000000001,-21.));
#1815=CARTESIAN_POINT('Origin',(41.,0.,-23.5));
#1816=CARTESIAN_POINT('',(41.,-11.,3.74999999999999));
#1817=CARTESIAN_POINT('Origin',(0.,-11.,31.));
#1818=CARTESIAN_POINT('',(48.,-11.,31.));
#1819=CARTESIAN_POINT('',(48.,-11.,-31.));
#1820=CARTESIAN_POINT('',(48.,-11.,31.));
#1821=CARTESIAN_POINT('',(0.,-11.,-31.));
#1822=CARTESIAN_POINT('',(48.,-11.,31.));
#1823=CARTESIAN_POINT('Origin',(48.,-8.88178419700125E-15,0.));
#1824=CARTESIAN_POINT('',(48.,-11.,-31.));
#1825=CARTESIAN_POINT('Origin',(0.,-11.,-31.));
#1826=CARTESIAN_POINT('Origin',(0.,13.,33.));
#1827=CARTESIAN_POINT('Origin',(50.,-4.44089209850063E-15,0.));
#1828=UNCERTAINTY_MEASURE_WITH_UNIT(LENGTH_MEASURE(0.01),#1832,
'DISTANCE_ACCURACY_VALUE',
'Maximum model space distance between geometric entities at asserted c
onnectivities');
#1829=UNCERTAINTY_MEASURE_WITH_UNIT(LENGTH_MEASURE(0.01),#1832,
'DISTANCE_ACCURACY_VALUE',
'Maximum model space distance between geometric entities at asserted c
onnectivities');
#1830=(
GEOMETRIC_REPRESENTATION_CONTEXT(3)
GLOBAL_UNCERTAINTY_ASSIGNED_CONTEXT((#1828))
GLOBAL_UNIT_ASSIGNED_CONTEXT((#1832,#1834,#1835))
REPRESENTATION_CONTEXT('','3D')
);
#1831=(
GEOMETRIC_REPRESENTATION_CONTEXT(3)
GLOBAL_UNCERTAINTY_ASSIGNED_CONTEXT((#1829))
GLOBAL_UNIT_ASSIGNED_CONTEXT((#1832,#1834,#1835))
REPRESENTATION_CONTEXT('','3D')
);
#1832=(
LENGTH_UNIT()
NAMED_UNIT(*)
SI_UNIT(.MILLI.,.METRE.)
);
#1833=(
LENGTH_UNIT()
NAMED_UNIT(*)
SI_UNIT(.CENTI.,.METRE.)
);
#1834=(
NAMED_UNIT(*)
PLANE_ANGLE_UNIT()
SI_UNIT($,.RADIAN.)
);
#1835=(
NAMED_UNIT(*)
SI_UNIT($,.STERADIAN.)
SOLID_ANGLE_UNIT()
);
#1836=SHAPE_DEFINITION_REPRESENTATION(#1837,#1838);
#1837=PRODUCT_DEFINITION_SHAPE('',$,#1840);
#1838=SHAPE_REPRESENTATION('',(#1132),#1830);
#1839=PRODUCT_DEFINITION_CONTEXT('part definition',#1844,'design');
#1840=PRODUCT_DEFINITION('wb_box2026','wb_box2026',#1841,#1839);
#1841=PRODUCT_DEFINITION_FORMATION('',$,#1846);
#1842=PRODUCT_RELATED_PRODUCT_CATEGORY('wb_box2026','wb_box2026',(#1846));
#1843=APPLICATION_PROTOCOL_DEFINITION('international standard',
'automotive_design',2009,#1844);
#1844=APPLICATION_CONTEXT(
'Core Data for Automotive Mechanical Design Process');
#1845=PRODUCT_CONTEXT('part definition',#1844,'mechanical');
#1846=PRODUCT('wb_box2026','wb_box2026',$,(#1845));
#1847=PRESENTATION_STYLE_ASSIGNMENT((#1848));
#1848=SURFACE_STYLE_USAGE(.BOTH.,#1851);
#1849=SURFACE_STYLE_RENDERING_WITH_PROPERTIES($,#1855,(#1850));
#1850=SURFACE_STYLE_TRANSPARENT(0.);
#1851=SURFACE_SIDE_STYLE('',(#1852,#1849));
#1852=SURFACE_STYLE_FILL_AREA(#1853);
#1853=FILL_AREA_STYLE('',(#1854));
#1854=FILL_AREA_STYLE_COLOUR('',#1855);
#1855=COLOUR_RGB('',0.749019607843137,0.749019607843137,0.749019607843137);
ENDSEC;
END-ISO-10303-21;
